<svg class="lamb" id="closed_lamb" style="display: block;" xmlns="http://www.w3.org/2000/svg"
  xmlns:xlink="http://www.w3.org/1999/xlink" x="0px" y="0px" viewBox="0 0 323.249 448.783"
  enable-background="new 0 0 323.249 448.783" xml:space="preserve">
          <g>
            <g>
              <path fill="#808080" d="M3.458,194.346c0.381,1.811,0.798,3.639,1.241,5.434l69.268-17.082c-0.251-1.005-0.486-2.017-0.702-3.035
			L3.458,194.346z" />
              <path fill="#808080" d="M6.047,117.143c-0.505,1.794-0.987,3.624-1.43,5.438l69.226,16.915c0.246-1.015,0.514-2.021,0.794-3.022
			L6.047,117.143z" />
              <path fill="#808080" d="M44.301,49.849c-1.277,1.347-2.546,2.732-3.77,4.118l53.338,47.164c0.688-0.781,1.39-1.549,2.105-2.306
			L44.301,49.849z" />
              <path fill="#808080" d="M21.13,81.089c-0.919,1.613-1.823,3.266-2.686,4.912l63.084,33.089c0.483-0.925,0.983-1.839,1.497-2.745
			L21.13,81.089z" />
              <path fill="#808080" d="M37.124,264.08c1.178,1.421,2.394,2.84,3.616,4.216l53.42-47.43c-0.689-0.774-1.374-1.552-2.036-2.349
			L37.124,264.08z" />
              <path fill="#808080" d="M175.591,322.039c1.83-0.158,3.674-0.349,5.481-0.567l-8.542-70.877c-1.025,0.123-2.054,0.229-3.089,0.317
			L175.591,322.039z" />
              <path fill="#808080" d="M136.796,320.731c1.827,0.284,3.687,0.538,5.528,0.759l8.489-70.906c-1.033-0.125-2.066-0.246-3.088-0.405
			L136.796,320.731z" />
              <path fill="#808080" d="M65.314,290.816c1.491,1.107,3.016,2.199,4.531,3.245l40.588-58.797c-0.854-0.59-1.704-1.187-2.537-1.806
			L65.314,290.816z" />
              <path fill="#808080" d="M99.174,310.108c1.727,0.724,3.488,1.426,5.235,2.087l25.28-66.806c-0.975-0.371-1.949-0.746-2.909-1.149
			L99.174,310.108z" />
              <path fill="#808080" d="M307.092,90.534c-0.804-1.657-1.647-3.322-2.506-4.95l-62.851,33.19c0.484,0.918,0.969,1.836,1.422,2.773
			L307.092,90.534z" />
              <path fill="#808080" d="M257.825,31.13c-1.485-1.101-3.015-2.194-4.546-3.249l-40.311,58.5c0.859,0.593,1.713,1.193,2.55,1.815
			L257.825,31.13z" />
              <path fill="#808080" d="M286.016,57.814c-1.182-1.423-2.4-2.84-3.62-4.212l-53.091,47.24c0.691,0.778,1.38,1.557,2.044,2.359
			L286.016,57.814z" />
              <path fill="#808080" d="M74.213,25.054c-1.555,1-3.116,2.044-4.642,3.102l40.548,58.464c0.853-0.595,1.718-1.172,2.592-1.738
			L74.213,25.054z" />
              <path fill="#808080" d="M319.757,127.521c-0.384-1.818-0.805-3.651-1.25-5.447l-69.001,17.102c0.249,1.01,0.49,2.023,0.705,3.045
			L319.757,127.521z" />
              <path fill="#808080" d="M71.35,158l-71.262-2.333C0.029,157.443,0,159.242,0,161.014v0.083h71.285
			c0-0.089-0.007-0.177-0.007-0.266C71.278,159.881,71.321,158.943,71.35,158z" />
              <path fill="#808080" d="M213.715,314.037c1.779-0.605,3.569-1.25,5.321-1.916l-25.362-66.71c-0.973,0.369-1.956,0.713-2.944,1.049
			L213.715,314.037z" />
              <path fill="#808080" d="M109.352,8.053c-1.757,0.6-3.529,1.241-5.268,1.903l25.308,66.434c0.972-0.373,1.953-0.727,2.94-1.067
			L109.352,8.053z" />
              <path fill="#808080" d="M223.939,11.864c-1.717-0.718-3.475-1.418-5.227-2.079l-25.093,66.443c0.98,0.371,1.957,0.75,2.921,1.154
			L223.939,11.864z" />
              <path fill="#808080" d="M147.525,0c-1.84,0.161-3.7,0.354-5.527,0.577l8.585,70.53c1.031-0.127,2.064-0.242,3.105-0.334L147.525,0
			z" />
              <path fill="#808080" d="M186.323,1.277c-1.838-0.284-3.714-0.539-5.578-0.76l-8.36,70.531c1.04,0.123,2.081,0.24,3.109,0.398
			L186.323,1.277z" />
              <path fill="#808080" d="M16.091,231.36c0.801,1.653,1.639,3.313,2.492,4.932l63.174-33.274c-0.484-0.913-0.963-1.829-1.415-2.759
			L16.091,231.36z" />
              <path fill="#808080" d="M248.91,297.054c1.548-0.994,3.099-2.028,4.61-3.074l-40.583-58.679c-0.852,0.588-1.72,1.153-2.593,1.713
			L248.91,297.054z" />
              <path fill="#808080" d="M302.034,241.089c0.926-1.621,1.835-3.28,2.703-4.931l-63.068-33.144c-0.489,0.923-1,1.832-1.519,2.736
			L302.034,241.089z" />
              <path fill="#808080" d="M317.163,205.022c0.503-1.781,0.982-3.595,1.424-5.391l-69.119-16.983
			c-0.252,1.013-0.531,2.013-0.817,3.012L317.163,205.022z" />
              <path fill="#808080" d="M278.831,272.303c1.275-1.342,2.546-2.727,3.774-4.114l-53.368-47.292
			c-0.692,0.777-1.402,1.535-2.119,2.287L278.831,272.303z" />
              <path fill="#808080" d="M252.145,160.848c0,1.1-0.044,2.19-0.083,3.28l71.094,2.405c0.062-1.83,0.093-3.687,0.093-5.52v-0.166
			H252.145z" />
              <path fill="#808080" d="M214.473,67.742c-1.072-0.608-2.168-1.204-3.255-1.772l-7.686,14.717c0.926,0.485,1.84,0.987,2.747,1.503
			L214.473,67.742z" />
              <path fill="#808080" d="M60.178,195.689c0.397,1.165,0.821,2.341,1.26,3.493l15.837-6.024c-0.373-0.971-0.727-1.951-1.067-2.937
			L60.178,195.689z" />
              <path fill="#808080" d="M247.752,224.84c0.726-0.978,1.441-1.978,2.127-2.972l-13.866-9.574c-0.587,0.845-1.174,1.691-1.79,2.515
			L247.752,224.84z" />
              <path fill="#808080" d="M93.122,78.552c-0.948,0.788-1.9,1.608-2.829,2.437l11.148,12.492c0.781-0.7,1.572-1.387,2.377-2.06
			L93.122,78.552z" />
              <path fill="#808080" d="M71.461,219.026c0.669,1.039,1.367,2.082,2.073,3.1l13.97-9.7c-0.597-0.856-1.176-1.725-1.744-2.602
			L71.461,219.026z" />
              <path fill="#808080" d="M230.054,243.538c0.944-0.783,1.888-1.595,2.806-2.413l-11.244-12.63
			c-0.778,0.689-1.555,1.379-2.356,2.041L230.054,243.538z" />
              <path fill="#808080" d="M158.662,251.187l-0.55,16.971c1.224,0.039,2.463,0.059,3.683,0.056l-0.031-16.951
			c-0.017,0-0.035,0.001-0.052,0.001C160.689,251.264,159.676,251.221,158.662,251.187z" />
              <path fill="#808080" d="M55.668,144.695c-0.186,1.212-0.354,2.447-0.499,3.669l16.736,1.981c0.12-1.035,0.24-2.071,0.394-3.095
			L55.668,144.695z" />
              <path fill="#808080" d="M62.664,119.767c-0.474,1.137-0.935,2.299-1.369,3.453l15.726,5.924c0.367-0.978,0.75-1.949,1.15-2.911
			L62.664,119.767z" />
              <path fill="#808080" d="M183.781,265.902c1.205-0.254,2.418-0.532,3.603-0.825l-4.065-16.441
			c-1.006,0.248-2.015,0.488-3.033,0.702L183.781,265.902z" />
              <path fill="#808080" d="M260.531,202.385c0.481-1.149,0.947-2.322,1.387-3.485l-15.696-5.925c-0.375,0.984-0.751,1.968-1.16,2.936
			L260.531,202.385z" />
              <path fill="#808080" d="M190.534,57.781c-1.176-0.329-2.374-0.642-3.56-0.93l-3.916,16.114c1.011,0.246,2.013,0.512,3.01,0.791
			L190.534,57.781z" />
              <path fill="#808080" d="M54.841,170.45c0.108,1.226,0.239,2.465,0.389,3.682l16.772-2.065c-0.128-1.029-0.246-2.061-0.339-3.101
			L54.841,170.45z" />
              <path fill="#808080" d="M139.373,56.151c-1.2,0.254-2.415,0.534-3.612,0.83l4,16.123c1.01-0.253,2.027-0.487,3.051-0.706
			L139.373,56.151z" />
              <path fill="#808080" d="M267.56,177.438c0.186-1.206,0.354-2.431,0.499-3.641l-16.604-1.988c-0.125,1.03-0.248,2.06-0.408,3.078
			L267.56,177.438z" />
              <path fill="#808080" d="M132.615,264.227c1.173,0.329,2.366,0.642,3.545,0.929l4.029-16.502c-1.002-0.246-1.995-0.515-2.984-0.793
			L132.615,264.227z" />
              <path fill="#808080" d="M263.103,126.453c-0.398-1.172-0.823-2.353-1.262-3.509l-15.556,5.904
			c0.371,0.979,0.719,1.969,1.057,2.964L263.103,126.453z" />
              <path fill="#808080" d="M114.911,64.518c-1.111,0.537-2.231,1.103-3.33,1.683l7.784,14.755c0.925-0.493,1.857-0.976,2.801-1.436
			L114.911,64.518z" />
              <path fill="#808080" d="M235.348,83.198c-0.882-0.835-1.791-1.667-2.701-2.472l-0.082-0.073l-11.016,12.453
			c0.802,0.709,1.587,1.435,2.363,2.171L235.348,83.198z" />
              <path fill="#808080" d="M208.245,257.559c1.119-0.54,2.241-1.106,3.337-1.684l-7.892-14.982c-0.927,0.488-1.852,0.978-2.797,1.435
			L208.245,257.559z" />
              <path fill="#808080" d="M268.413,151.697c-0.106-1.224-0.236-2.463-0.385-3.683l-16.55,2.02c0.123,1.032,0.229,2.068,0.317,3.11
			L268.413,151.697z" />
              <path fill="#808080" d="M87.98,238.915c0.857,0.809,1.737,1.614,2.618,2.393l0.041,0.037l11.28-12.752
			c-0.761-0.672-1.508-1.359-2.246-2.056L87.98,238.915z" />
              <path fill="#808080" d="M108.675,254.238c1.067,0.606,2.159,1.203,3.245,1.771l7.895-15.074c-0.919-0.483-1.827-0.983-2.727-1.496
			L108.675,254.238z" />
              <path fill="#808080" d="M251.834,103.088c-0.664-1.033-1.354-2.068-2.053-3.076l-13.683,9.475
			c0.592,0.856,1.164,1.726,1.727,2.603L251.834,103.088z" />
              <path fill="#808080" d="M75.438,97.265c-0.729,0.984-1.45,1.994-2.142,2.999l13.819,9.517c0.587-0.855,1.188-1.701,1.804-2.535
			L75.438,97.265z" />
              <path fill="#808080" d="M164.498,70.468l0.52-16.595c-1.226-0.038-2.465-0.056-3.683-0.052l0.048,16.585
			c0.11,0,0.218-0.008,0.329-0.008C162.646,70.397,163.57,70.439,164.498,70.468z" />
              <path fill="#808080" d="M111.126,38.049c-1.416,0.581-2.845,1.196-4.248,1.831l17.454,38.637c0.953-0.434,1.908-0.863,2.877-1.264
			L111.126,38.049z" />
              <path fill="#808080" d="M142.034,29.549c-1.504,0.223-3.029,0.477-4.532,0.754l7.665,41.638c1.024-0.19,2.048-0.382,3.084-0.537
			L142.034,29.549z" />
              <path fill="#808080" d="M277.658,96.161c-0.743-1.328-1.519-2.662-2.307-3.963l-36.225,21.934c0.539,0.89,1.05,1.798,1.559,2.708
			L277.658,96.161z" />
              <path fill="#808080" d="M289.833,125.931c-0.404-1.481-0.841-2.975-1.296-4.438l-40.436,12.577c0.31,0.998,0.584,2.01,0.86,3.022
			L289.833,125.931z" />
              <path fill="#808080" d="M291.485,189.368c0.322-1.478,0.622-2.982,0.894-4.468l-41.761-7.613
			c-0.189,1.022-0.391,2.038-0.614,3.048L291.485,189.368z" />
              <path fill="#808080" d="M83.097,53.767c-1.234,0.903-2.473,1.846-3.685,2.801l26.281,33.348c0.82-0.649,1.643-1.294,2.486-1.915
			L83.097,53.767z" />
              <path fill="#808080" d="M294.491,157.575c-0.039-1.523-0.105-3.066-0.197-4.587l-42.316,2.554c0.06,1.035,0.087,2.079,0.112,3.124
			L294.491,157.575z" />
              <path fill="#808080" d="M227.819,99.213l30.942-28.917c-1.028-1.1-2.09-2.199-3.155-3.264l-0.096-0.096l-29.932,29.932
			C226.343,97.631,227.081,98.422,227.819,99.213z" />
              <path fill="#808080" d="M280.895,219.709c0.682-1.386,1.349-2.802,1.98-4.208l-38.791-17.42c-0.434,0.956-0.877,1.905-1.342,2.842
			L280.895,219.709z" />
              <path fill="#808080" d="M173.945,28.672c-1.515-0.14-3.047-0.256-4.554-0.344l-2.463,42.231c1.042,0.059,2.078,0.143,3.11,0.237
			L173.945,28.672z" />
              <path fill="#808080" d="M205.227,35.443c-1.431-0.496-2.89-0.974-4.336-1.421l-12.477,40.402c0.994,0.308,1.973,0.651,2.953,0.992
			L205.227,35.443z" />
              <path fill="#808080" d="M95.772,222.625l-31.194,29.216c0.999,1.067,2.028,2.13,3.058,3.16l0.048,0.048l30.209-30.209
			C97.17,224.118,96.472,223.371,95.772,222.625z" />
              <path fill="#808080" d="M234.099,49.586c-1.281-0.834-2.591-1.655-3.894-2.44L208.36,83.387c0.894,0.54,1.767,1.11,2.64,1.68
			L234.099,49.586z" />
              <path fill="#808080" d="M149.157,293.346c1.511,0.142,3.044,0.26,4.554,0.349l2.531-42.612c-1.037-0.062-2.07-0.139-3.097-0.236
			L149.157,293.346z" />
              <path fill="#808080" d="M117.9,286.55c1.427,0.496,2.879,0.974,4.316,1.419l12.641-40.775c-0.987-0.308-1.958-0.653-2.93-0.993
			L117.9,286.55z" />
              <path fill="#808080" d="M28.755,164.598c0.041,1.526,0.109,3.069,0.202,4.587l42.523-2.612c-0.065-1.034-0.105-2.073-0.135-3.116
			L28.755,164.598z" />
              <path fill="#808080" d="M31.731,132.786c-0.323,1.486-0.624,3.001-0.895,4.503l41.882,7.578c0.184-1.025,0.373-2.049,0.591-3.062
			L31.731,132.786z" />
              <path fill="#808080" d="M33.447,196.237c0.404,1.472,0.839,2.959,1.294,4.418l40.7-12.694c-0.312-0.991-0.59-1.996-0.869-3.001
			L33.447,196.237z" />
              <path fill="#808080" d="M89.03,272.373c1.274,0.831,2.581,1.652,3.882,2.439l22.1-36.568c-0.888-0.538-1.755-1.106-2.623-1.673
			L89.03,272.373z" />
              <path fill="#808080" d="M45.642,225.974c0.749,1.337,1.534,2.681,2.331,3.993l36.492-22.161c-0.542-0.889-1.054-1.798-1.566-2.707
			L45.642,225.974z" />
              <path fill="#808080" d="M59.793,75.586c-0.977,1.163-1.946,2.357-2.879,3.549l33.468,26.204c0.639-0.819,1.28-1.635,1.946-2.431
			L59.793,75.586z" />
              <path fill="#808080" d="M212.005,284.029c1.425-0.583,2.858-1.199,4.257-1.831l-17.537-38.889
			c-0.952,0.429-1.91,0.847-2.879,1.244L212.005,284.029z" />
              <path fill="#808080" d="M240.059,268.33c1.227-0.898,2.457-1.831,3.656-2.773l-26.353-33.522c-0.818,0.64-1.642,1.271-2.482,1.884
			L240.059,268.33z" />
              <path fill="#808080" d="M263.379,246.531c0.972-1.156,1.933-2.339,2.857-3.517l-33.505-26.298
			c-0.64,0.811-1.287,1.614-1.953,2.402L263.379,246.531z" />
              <path fill="#808080" d="M181.097,292.5c1.511-0.223,3.032-0.475,4.521-0.748l-7.69-41.974c-1.019,0.185-2.04,0.368-3.071,0.519
			L181.097,292.5z" />
              <path fill="#808080" d="M42.279,102.466c-0.673,1.371-1.331,2.774-1.957,4.17l38.812,17.398c0.426-0.952,0.855-1.903,1.313-2.838
			L42.279,102.466z" />
              <path fill="#808080" d="M102.935,280.29c1.386,0.682,2.802,1.349,4.208,1.98l17.506-38.982c-0.954-0.43-1.904-0.868-2.84-1.33
			L102.935,280.29z" />
              <path fill="#808080" d="M284.595,110.521c-0.581-1.416-1.196-2.845-1.831-4.249l-38.618,17.445
			c0.431,0.954,0.853,1.913,1.251,2.884L284.595,110.521z" />
              <path fill="#808080" d="M268.877,82.491c-0.903-1.234-1.846-2.473-2.801-3.686l-33.277,26.225
			c0.647,0.823,1.287,1.652,1.906,2.497L268.877,82.491z" />
              <path fill="#808080" d="M76.113,262.774c1.156,0.972,2.339,1.933,3.517,2.857l26.393-33.626c-0.811-0.636-1.618-1.278-2.406-1.94
			L76.113,262.774z" />
              <path fill="#808080" d="M165.069,293.886c1.523-0.039,3.066-0.105,4.587-0.197l-2.571-42.598c-1.033,0.061-2.072,0.09-3.114,0.116
			L165.069,293.886z" />
              <path fill="#808080" d="M133.277,290.88c1.478,0.322,2.981,0.622,4.468,0.894l7.659-42.011c-1.019-0.187-2.034-0.384-3.041-0.604
			L133.277,290.88z" />
              <path fill="#808080" d="M196.713,289.228c1.481-0.404,2.974-0.84,4.439-1.296l-12.664-40.716
			c-0.994,0.309-2.003,0.582-3.012,0.857L196.713,289.228z" />
              <path fill="#808080" d="M226.483,277.053c1.329-0.743,2.662-1.519,3.963-2.307l-22.085-36.473c-0.888,0.537-1.792,1.047-2.7,1.554
			L226.483,277.053z" />
              <path fill="#808080" d="M293.095,141.429c-0.223-1.504-0.477-3.029-0.754-4.533l-41.689,7.674
			c0.187,1.024,0.371,2.049,0.523,3.084L293.095,141.429z" />
              <path fill="#808080" d="M293.972,173.339c0.14-1.515,0.256-3.047,0.344-4.554l-42.353-2.47c-0.062,1.04-0.139,2.076-0.237,3.106
			L293.972,173.339z" />
              <path fill="#808080" d="M99.835,94.97L70.803,63.973c-1.066,0.999-2.13,2.028-3.16,3.058l-0.048,0.048l30.022,30.022
			C98.34,96.375,99.087,95.673,99.835,94.97z" />
              <path fill="#808080" d="M30.144,180.492c0.223,1.511,0.475,3.032,0.748,4.521l41.923-7.681c-0.189-1.02-0.379-2.039-0.533-3.071
			L30.144,180.492z" />
              <path fill="#808080" d="M36.094,117.295c-0.496,1.427-0.974,2.879-1.419,4.317l40.61,12.589c0.306-0.99,0.646-1.964,0.984-2.94
			L36.094,117.295z" />
              <path fill="#808080" d="M29.298,148.552c-0.142,1.511-0.26,3.043-0.349,4.554l42.49,2.524c0.059-1.039,0.142-2.072,0.237-3.101
			L29.298,148.552z" />
              <path fill="#808080" d="M252.349,258.156c1.1-1.028,2.199-2.09,3.264-3.156l0.096-0.096l-30.12-30.121
			c-0.763,0.762-1.552,1.498-2.341,2.233L252.349,258.156z" />
              <path fill="#808080" d="M158.046,28.15c-1.526,0.041-3.069,0.109-4.587,0.202l2.595,42.24c1.037-0.064,2.08-0.102,3.126-0.131
			L158.046,28.15z" />
              <path fill="#808080" d="M96.67,45.037c-1.337,0.749-2.681,1.533-3.994,2.33l22.012,36.247c0.892-0.545,1.803-1.059,2.714-1.573
			L96.67,45.037z" />
              <path fill="#808080" d="M50.271,88.425c-0.831,1.274-1.652,2.581-2.438,3.882l36.374,21.983c0.537-0.891,1.103-1.763,1.67-2.634
			L50.271,88.425z" />
              <path fill="#808080" d="M126.407,32.842c-1.472,0.403-2.959,0.839-4.418,1.294l12.606,40.42c0.994-0.313,2.003-0.591,3.011-0.871
			L126.407,32.842z" />
              <path fill="#808080" d="M54.314,239.454c0.897,1.227,1.831,2.457,2.773,3.656l33.593-26.409c-0.642-0.815-1.278-1.635-1.893-2.472
			L54.314,239.454z" />
              <path fill="#808080" d="M38.615,211.399c0.583,1.425,1.199,2.858,1.831,4.257l38.908-17.545c-0.432-0.951-0.857-1.905-1.257-2.873
			L38.615,211.399z" />
              <path fill="#808080" d="M247.058,59.188c-1.163-0.977-2.357-1.945-3.549-2.879l-26.109,33.347
			c0.819,0.642,1.632,1.289,2.427,1.959L247.058,59.188z" />
              <path fill="#808080" d="M220.178,41.673c-1.371-0.673-2.774-1.331-4.17-1.957l-17.313,38.621c0.954,0.429,1.904,0.864,2.84,1.325
			L220.178,41.673z" />
              <path fill="#808080" d="M189.858,31.126c-1.486-0.323-3.001-0.624-4.503-0.895l-7.533,41.632c1.028,0.186,2.053,0.38,3.069,0.601
			L189.858,31.126z" />
              <path fill="#808080" d="M287.202,204.622c0.496-1.431,0.974-2.89,1.421-4.336l-40.571-12.53c-0.31,0.992-0.655,1.967-0.998,2.944
			L287.202,204.622z" />
              <path fill="#808080" d="M273.058,233.494c0.834-1.281,1.655-2.591,2.44-3.894l-36.436-21.962c-0.541,0.89-1.113,1.759-1.683,2.629
			L273.058,233.494z" />
              <path fill="#808080" d="M161.762,250.415l0.002,0.847c0.74,0,1.471-0.038,2.207-0.056l-0.022-0.847
			C163.22,250.378,162.496,250.415,161.762,250.415z" />
              <path fill="#808080" d="M115.111,84.309l-0.422-0.695c-0.669,0.409-1.32,0.843-1.977,1.269l0.439,0.682
			C113.803,85.144,114.448,84.713,115.111,84.309z" />
              <path fill="#808080" d="M72.133,161.097h-0.848c0.002,0.791,0.037,1.574,0.06,2.36l0.847-0.023
			C72.169,162.656,72.135,161.88,72.133,161.097z" />
              <path fill="#808080" d="M110.581,87.286l-0.461-0.665c-0.652,0.454-1.302,0.91-1.941,1.381l0.478,0.652
			C109.29,88.188,109.935,87.736,110.581,87.286z" />
              <path fill="#808080" d="M124.67,79.266l-0.338-0.749c-0.724,0.33-1.451,0.654-2.165,1.003l0.357,0.738
			C123.231,79.913,123.952,79.593,124.67,79.266z" />
              <path fill="#808080" d="M101.978,94.083l-0.536-0.601c-0.544,0.487-1.075,0.988-1.607,1.488l0.55,0.588
			C100.912,95.062,101.438,94.566,101.978,94.083z" />
              <path fill="#808080" d="M106.192,90.551l-0.499-0.634c-0.628,0.497-1.259,0.992-1.873,1.505l0.515,0.62
			C104.944,91.533,105.569,91.043,106.192,90.551z" />
              <path fill="#808080" d="M139.964,73.917l-0.202-0.813c-0.724,0.181-1.439,0.382-2.156,0.58l0.221,0.805
			C138.537,74.294,139.246,74.096,139.964,73.917z" />
              <path fill="#808080" d="M145.319,72.768l-0.152-0.827c-0.787,0.146-1.574,0.291-2.354,0.458l0.174,0.821
			C143.759,73.055,144.539,72.912,145.319,72.768z" />
              <path fill="#808080" d="M129.687,77.162l-0.294-0.773c-0.731,0.281-1.462,0.564-2.184,0.863l0.313,0.763
			C128.238,77.72,128.962,77.44,129.687,77.162z" />
              <path fill="#808080" d="M150.685,71.944l-0.102-0.838c-0.778,0.096-1.56,0.182-2.332,0.297l0.124,0.834
			C149.139,72.124,149.914,72.039,150.685,71.944z" />
              <path fill="#808080" d="M134.842,75.35l-0.248-0.794c-0.761,0.24-1.509,0.508-2.262,0.767l0.268,0.785
			C133.347,75.852,134.088,75.587,134.842,75.35z" />
              <path fill="#808080" d="M98.186,97.671l-0.569-0.569c-0.56,0.563-1.099,1.146-1.643,1.723l0.584,0.554
			C97.098,98.807,97.631,98.229,98.186,97.671z" />
              <path fill="#808080" d="M72.744,150.444l-0.839-0.099c-0.084,0.726-0.164,1.453-0.231,2.184l0.842,0.079
			C72.583,151.884,72.661,151.163,72.744,150.444z" />
              <path fill="#808080" d="M74.657,139.694l-0.814-0.199c-0.186,0.767-0.368,1.535-0.534,2.31l0.82,0.178
			C74.293,141.215,74.473,140.454,74.657,139.694z" />
              <path fill="#808080" d="M73.546,145.017l-0.828-0.15c-0.142,0.793-0.297,1.582-0.418,2.383l0.834,0.128
			C73.253,146.585,73.406,145.803,73.546,145.017z" />
              <path fill="#808080" d="M76.08,134.448l-0.796-0.247c-0.232,0.75-0.434,1.513-0.647,2.272l0.803,0.226
			C75.651,135.947,75.851,135.192,76.08,134.448z" />
              <path fill="#808080" d="M72.283,155.68l-0.845-0.05c-0.045,0.786-0.064,1.579-0.088,2.37l0.847,0.028
			C72.221,157.244,72.239,156.459,72.283,155.68z" />
              <path fill="#808080" d="M77.795,129.436l-0.774-0.291c-0.263,0.7-0.507,1.409-0.753,2.117l0.784,0.273
			C77.295,130.832,77.535,130.13,77.795,129.436z" />
              <path fill="#808080" d="M156.106,71.437l-0.052-0.845c-0.792,0.049-1.58,0.111-2.366,0.181l0.073,0.843
			C154.541,71.546,155.322,71.485,156.106,71.437z" />
              <path fill="#808080" d="M87.782,110.241l-0.667-0.459c-0.424,0.617-0.83,1.245-1.239,1.873l0.68,0.443
			C86.961,111.476,87.363,110.853,87.782,110.241z" />
              <path fill="#808080" d="M79.884,124.371l-0.75-0.336c-0.326,0.73-0.655,1.459-0.963,2.199l0.762,0.318
			C79.237,125.817,79.561,125.094,79.884,124.371z" />
              <path fill="#808080" d="M94.472,101.665l-0.604-0.534c-0.518,0.588-1.037,1.176-1.54,1.777l0.617,0.519
			C93.444,102.83,93.959,102.248,94.472,101.665z" />
              <path fill="#808080" d="M91.018,105.837l-0.635-0.498c-0.493,0.632-0.987,1.262-1.463,1.908l0.65,0.481
			C90.041,107.089,90.53,106.464,91.018,105.837z" />
              <path fill="#808080" d="M82.252,119.469l-0.724-0.38c-0.365,0.699-0.733,1.397-1.081,2.107l0.735,0.361
			C81.526,120.854,81.89,120.162,82.252,119.469z" />
              <path fill="#808080" d="M84.904,114.71l-0.697-0.421c-0.408,0.676-0.793,1.368-1.183,2.055l0.708,0.403
			C84.119,116.066,84.5,115.381,84.904,114.71z" />
              <path fill="#808080" d="M119.747,81.679l-0.381-0.723c-0.661,0.352-1.312,0.717-1.963,1.084l0.398,0.711
			C118.447,82.388,119.093,82.027,119.747,81.679z" />
              <path fill="#808080" d="M241.011,119.157l0.723-0.382c-0.343-0.649-0.692-1.294-1.049-1.934l-0.711,0.398
			C240.328,117.873,240.673,118.513,241.011,119.157z" />
              <path fill="#808080" d="M238.43,114.554l0.696-0.421c-0.419-0.691-0.864-1.364-1.3-2.043l-0.683,0.439
			C237.575,113.202,238.016,113.869,238.43,114.554z" />
              <path fill="#808080" d="M243.397,124.056l0.749-0.339c-0.328-0.725-0.644-1.456-0.99-2.17l-0.737,0.358
			C242.761,122.613,243.073,123.338,243.397,124.056z" />
              <path fill="#808080" d="M245.512,129.141l0.773-0.293c-0.286-0.754-0.582-1.502-0.887-2.246l-0.764,0.313
			C244.936,127.652,245.229,128.394,245.512,129.141z" />
              <path fill="#808080" d="M228.703,101.378l0.602-0.536c-0.488-0.55-0.984-1.092-1.486-1.63l-0.588,0.55
			C227.728,100.295,228.219,100.833,228.703,101.378z" />
              <path fill="#808080" d="M235.433,109.948l0.666-0.461c-0.456-0.659-0.921-1.312-1.394-1.959l-0.652,0.478
			C234.52,108.647,234.981,109.294,235.433,109.948z" />
              <path fill="#808080" d="M225.009,97.436l0.569-0.569c-0.543-0.542-1.11-1.061-1.667-1.589l-0.554,0.585
			C223.909,96.386,224.47,96.899,225.009,97.436z" />
              <path fill="#808080" d="M250.64,150.136l0.838-0.102c-0.095-0.795-0.188-1.591-0.303-2.379l-0.835,0.124
			C250.454,148.56,250.546,149.348,250.64,150.136z" />
              <path fill="#808080" d="M251.133,155.593l0.845-0.051c-0.046-0.803-0.115-1.6-0.183-2.398l-0.843,0.073
			C251.019,154.008,251.087,154.797,251.133,155.593z" />
              <path fill="#808080" d="M248.693,139.377l0.813-0.202c-0.173-0.699-0.356-1.392-0.544-2.084l-0.805,0.22
			C248.342,137.997,248.523,138.685,248.693,139.377z" />
              <path fill="#808080" d="M247.306,134.317l0.796-0.248c-0.236-0.761-0.505-1.506-0.76-2.258l-0.786,0.267
			C246.808,132.824,247.073,133.563,247.306,134.317z" />
              <path fill="#808080" d="M249.825,144.723l0.827-0.152c-0.143-0.785-0.279-1.572-0.442-2.35l-0.821,0.174
			C249.55,143.165,249.684,143.945,249.825,144.723z" />
              <path fill="#808080" d="M221.015,93.71l0.534-0.603c-0.569-0.503-1.14-1.003-1.721-1.492l-0.518,0.617
			C219.885,92.716,220.451,93.211,221.015,93.71z" />
              <path fill="#808080" d="M182.86,73.779l0.198-0.814c-0.719-0.175-1.441-0.344-2.166-0.501l-0.178,0.82
			C181.433,73.439,182.147,73.606,182.86,73.779z" />
              <path fill="#808080" d="M161.385,71.253l-0.002-0.848c-0.738,0.003-1.469,0.036-2.203,0.056l0.023,0.847
			C159.93,71.288,160.654,71.256,161.385,71.253z" />
              <path fill="#808080" d="M193.327,77.001l0.292-0.774c-0.745-0.282-1.498-0.548-2.253-0.811l-0.272,0.784
			C191.842,76.46,192.588,76.722,193.327,77.001z" />
              <path fill="#808080" d="M177.673,72.691l0.15-0.828c-0.775-0.14-1.545-0.296-2.327-0.417l-0.128,0.833
			C176.142,72.398,176.904,72.552,177.673,72.691z" />
              <path fill="#808080" d="M172.286,71.887l0.099-0.838c-0.781-0.092-1.562-0.181-2.348-0.253l-0.078,0.842
			C170.739,71.709,171.513,71.796,172.286,71.887z" />
              <path fill="#808080" d="M166.878,71.404l0.049-0.845c-0.806-0.046-1.618-0.066-2.43-0.091l-0.026,0.847
			C165.275,71.339,166.08,71.358,166.878,71.404z" />
              <path fill="#808080" d="M188.168,75.22l0.246-0.796c-0.775-0.24-1.563-0.448-2.346-0.668l-0.225,0.804
			C186.619,74.777,187.4,74.983,188.168,75.22z" />
              <path fill="#808080" d="M216.902,90.291l0.497-0.635c-0.625-0.49-1.244-0.986-1.882-1.46l-0.481,0.65
			C215.668,89.315,216.283,89.806,216.902,90.291z" />
              <path fill="#808080" d="M212.508,87.048l0.459-0.667c-0.649-0.448-1.307-0.882-1.968-1.314l-0.443,0.68
			C211.212,86.175,211.865,86.604,212.508,87.048z" />
              <path fill="#808080" d="M198.359,79.088l0.336-0.75c-0.717-0.323-1.43-0.652-2.156-0.957l-0.318,0.761
			C196.942,78.443,197.649,78.769,198.359,79.088z" />
              <path fill="#808080" d="M203.154,81.412l0.379-0.725c-0.662-0.347-1.325-0.693-1.997-1.024l-0.361,0.735
			C201.84,80.725,202.497,81.068,203.154,81.412z" />
              <path fill="#808080" d="M207.939,84.084l0.42-0.697c-0.684-0.414-1.385-0.802-2.08-1.197l-0.402,0.709
			C206.567,83.29,207.261,83.675,207.939,84.084z" />
              <path fill="#808080" d="M247.256,187.511l0.795,0.246c0.216-0.692,0.4-1.397,0.6-2.096l-0.803-0.227
			C247.651,186.126,247.47,186.825,247.256,187.511z" />
              <path fill="#808080" d="M207.939,237.577l0.422,0.696c0.671-0.406,1.324-0.837,1.983-1.259l-0.439-0.683
			C209.252,236.749,208.604,237.175,207.939,237.577z" />
              <path fill="#808080" d="M212.476,234.635l0.461,0.666c0.655-0.452,1.301-0.914,1.943-1.382l-0.478-0.653
			C213.766,233.73,213.125,234.188,212.476,234.635z" />
              <path fill="#808080" d="M225.019,224.215l0.569,0.569c0.522-0.521,1.02-1.066,1.529-1.6l-0.584-0.554
			C226.03,223.158,225.536,223.698,225.019,224.215z" />
              <path fill="#808080" d="M198.387,242.56l0.338,0.75c0.723-0.326,1.455-0.638,2.168-0.982l-0.357-0.739
			C199.829,241.929,199.105,242.238,198.387,242.56z" />
              <path fill="#808080" d="M221.081,227.893l0.536,0.602c0.549-0.487,1.093-0.979,1.63-1.479l-0.55-0.588
			C222.165,226.924,221.626,227.411,221.081,227.893z" />
              <path fill="#808080" d="M216.863,231.4l0.499,0.635c0.635-0.497,1.278-0.984,1.9-1.498l-0.515-0.62
			C218.13,230.425,217.492,230.908,216.863,231.4z" />
              <path fill="#808080" d="M203.309,240.17l0.381,0.724c0.662-0.348,1.32-0.702,1.972-1.066l-0.398-0.712
			C204.617,239.475,203.965,239.825,203.309,240.17z" />
              <path fill="#808080" d="M177.776,248.952l0.152,0.827c0.788-0.143,1.578-0.278,2.358-0.442l-0.173-0.821
			C179.34,248.678,178.557,248.81,177.776,248.952z" />
              <path fill="#808080" d="M172.429,249.756l0.101,0.838c0.778-0.093,1.556-0.184,2.328-0.297l-0.123-0.835
			C173.969,249.574,173.199,249.664,172.429,249.756z" />
              <path fill="#808080" d="M188.24,246.42l0.248,0.796c0.755-0.234,1.495-0.502,2.242-0.755l-0.267-0.786
			C189.722,245.925,188.988,246.189,188.24,246.42z" />
              <path fill="#808080" d="M183.119,247.823l0.201,0.813c0.723-0.178,1.44-0.367,2.156-0.562l-0.22-0.805
			C184.546,247.461,183.835,247.647,183.119,247.823z" />
              <path fill="#808080" d="M193.38,244.639l0.294,0.773c0.729-0.276,1.453-0.564,2.173-0.858l-0.313-0.764
			C194.82,244.081,194.102,244.366,193.38,244.639z" />
              <path fill="#808080" d="M167.034,250.246l0.051,0.845c0.789-0.046,1.572-0.113,2.356-0.18l-0.073-0.843
			C168.592,250.134,167.815,250.2,167.034,250.246z" />
              <path fill="#808080" d="M248.655,182.448l0.813,0.2c0.191-0.767,0.364-1.54,0.535-2.314l-0.819-0.178
			C249.016,180.922,248.843,181.688,248.655,182.448z" />
              <path fill="#808080" d="M245.447,192.683l0.774,0.292c0.288-0.753,0.564-1.512,0.832-2.275l-0.784-0.272
			C246.005,191.185,245.732,191.936,245.447,192.683z" />
              <path fill="#808080" d="M251.298,160.83c0,0.006,0,0.012,0,0.018h0.848c0-0.006,0-0.012,0-0.018c0-0.726-0.038-1.443-0.055-2.164
			l-0.847,0.022C251.26,159.402,251.298,160.112,251.298,160.83z" />
              <path fill="#808080" d="M249.79,177.135l0.827,0.151c0.148-0.798,0.303-1.593,0.43-2.399l-0.833-0.129
			C250.09,175.556,249.935,176.344,249.79,177.135z" />
              <path fill="#808080" d="M250.617,171.709l0.838,0.1c0.097-0.794,0.196-1.587,0.271-2.388l-0.842-0.078
			C250.81,170.136,250.712,170.922,250.617,171.709z" />
              <path fill="#808080" d="M228.634,220.362l0.603,0.534c0.521-0.586,1.034-1.179,1.54-1.778l-0.617-0.519
			C229.659,219.194,229.151,219.782,228.634,220.362z" />
              <path fill="#808080" d="M251.118,166.266l0.845,0.049c0.044-0.726,0.072-1.456,0.098-2.187l-0.847-0.029
			C251.189,164.823,251.161,165.546,251.118,166.266z" />
              <path fill="#808080" d="M232.096,216.218l0.635,0.498c0.5-0.634,1.009-1.26,1.492-1.907l-0.65-0.482
			C233.095,214.969,232.591,215.59,232.096,216.218z" />
              <path fill="#808080" d="M235.347,211.834l0.666,0.46c0.465-0.669,0.919-1.345,1.367-2.028l-0.68-0.443
			C236.257,210.5,235.807,211.171,235.347,211.834z" />
              <path fill="#808080" d="M238.366,207.218l0.697,0.42c0.376-0.62,0.725-1.258,1.087-1.888l-0.707-0.404
			C239.084,205.97,238.739,206.603,238.366,207.218z" />
              <path fill="#808080" d="M243.334,197.744l0.75,0.337c0.328-0.722,0.668-1.438,0.978-2.17l-0.761-0.319
			C243.995,196.318,243.658,197.028,243.334,197.744z" />
              <path fill="#808080" d="M240.945,202.634l0.724,0.38c0.366-0.692,0.724-1.389,1.073-2.092l-0.735-0.362
			C241.662,201.257,241.308,201.949,240.945,202.634z" />
              <path fill="#808080" d="M140.387,247.842l-0.199,0.814c0.722,0.177,1.447,0.344,2.175,0.503l0.178-0.82
			C141.82,248.181,141.102,248.016,140.387,247.842z" />
              <path fill="#808080" d="M85.16,207.384l-0.695,0.422c0.417,0.682,0.86,1.346,1.294,2.017l0.682-0.439
			C86.012,208.719,85.572,208.061,85.16,207.384z" />
              <path fill="#808080" d="M82.48,202.637l-0.723,0.381c0.371,0.7,0.754,1.392,1.142,2.081l0.711-0.398
			C83.225,204.018,82.847,203.331,82.48,202.637z" />
              <path fill="#808080" d="M88.169,211.964l-0.665,0.462c0.422,0.606,0.847,1.209,1.284,1.804l0.653-0.478
			C89.008,213.162,88.587,212.564,88.169,211.964z" />
              <path fill="#808080" d="M80.103,197.774l-0.749,0.338c0.326,0.718,0.644,1.44,0.988,2.147l0.738-0.357
			C80.738,199.201,80.425,198.485,80.103,197.774z" />
              <path fill="#808080" d="M94.762,220.331l-0.602,0.535c0.529,0.595,1.068,1.178,1.613,1.759l0.588-0.55
			C95.821,221.499,95.286,220.92,94.762,220.331z" />
              <path fill="#808080" d="M91.315,216.202l-0.634,0.499c0.479,0.607,0.95,1.221,1.444,1.816l0.621-0.514
			C92.255,217.413,91.789,216.804,91.315,216.202z" />
              <path fill="#808080" d="M74.78,182.498l-0.813,0.2c0.189,0.76,0.398,1.511,0.606,2.263l0.805-0.221
			C75.172,183.995,74.967,183.25,74.78,182.498z" />
              <path fill="#808080" d="M73.641,177.181l-0.827,0.152c0.144,0.779,0.286,1.559,0.45,2.331l0.821-0.173
			C73.924,178.725,73.784,177.953,73.641,177.181z" />
              <path fill="#808080" d="M72.839,171.964l-0.838,0.103c0.091,0.732,0.171,1.467,0.28,2.194l0.834-0.123
			C73.008,173.418,72.929,172.69,72.839,171.964z" />
              <path fill="#808080" d="M98.463,224.271l-0.569,0.569c0.58,0.579,1.184,1.134,1.779,1.696l0.553-0.585
			C99.636,225.394,99.038,224.844,98.463,224.271z" />
              <path fill="#808080" d="M76.236,187.714l-0.794,0.248c0.24,0.76,0.507,1.507,0.766,2.258l0.786-0.268
			C76.737,189.208,76.472,188.467,76.236,187.714z" />
              <path fill="#808080" d="M78.047,192.864l-0.773,0.294c0.268,0.697,0.538,1.393,0.822,2.081l0.764-0.313
			C78.579,194.243,78.312,193.554,78.047,192.864z" />
              <path fill="#808080" d="M145.555,248.935l-0.151,0.828c0.773,0.142,1.542,0.294,2.322,0.416l0.129-0.833
			C147.082,249.226,146.32,249.075,145.555,248.935z" />
              <path fill="#808080" d="M129.982,244.615l-0.293,0.773c0.741,0.282,1.488,0.55,2.238,0.813l0.272-0.784
			C131.457,245.158,130.716,244.893,129.982,244.615z" />
              <path fill="#808080" d="M135.104,246.398l-0.247,0.796c0.774,0.241,1.564,0.447,2.347,0.668l0.225-0.803
			C136.654,246.84,135.872,246.636,135.104,246.398z" />
              <path fill="#808080" d="M72.325,166.521l-0.845,0.052c0.05,0.801,0.111,1.599,0.183,2.394l0.843-0.074
			C72.435,168.105,72.374,167.314,72.325,166.521z" />
              <path fill="#808080" d="M102.452,227.989l-0.534,0.603c0.561,0.496,1.124,0.989,1.698,1.471l0.519-0.617
			C103.567,228.969,103.009,228.481,102.452,227.989z" />
              <path fill="#808080" d="M150.914,249.746l-0.101,0.838c0.776,0.094,1.551,0.189,2.332,0.263l0.079-0.842
			C152.45,249.932,151.682,249.838,150.914,249.746z" />
              <path fill="#808080" d="M156.292,250.238l-0.05,0.845c0.803,0.048,1.611,0.076,2.419,0.103l0.028-0.847
			C157.888,250.313,157.088,250.286,156.292,250.238z" />
              <path fill="#808080" d="M110.893,234.597l-0.46,0.666c0.645,0.446,1.299,0.878,1.955,1.307l0.443-0.679
			C112.181,235.466,111.532,235.038,110.893,234.597z" />
              <path fill="#808080" d="M106.521,231.369l-0.499,0.635c0.622,0.488,1.238,0.982,1.873,1.454l0.482-0.649
			C107.749,232.342,107.138,231.853,106.521,231.369z" />
              <path fill="#808080" d="M120.195,240.211l-0.379,0.724c0.661,0.347,1.323,0.692,1.994,1.023l0.362-0.735
			C121.506,240.895,120.85,240.554,120.195,240.211z" />
              <path fill="#808080" d="M124.986,242.538l-0.337,0.75c0.709,0.32,1.413,0.649,2.131,0.952l0.319-0.761
			C126.387,243.18,125.689,242.854,124.986,242.538z" />
              <path fill="#808080" d="M115.433,237.547l-0.421,0.697c0.683,0.413,1.382,0.8,2.077,1.195l0.403-0.708
			C116.803,238.339,116.109,237.956,115.433,237.547z" />
              <path fill="#808080" d="M232.165,105.53l0.634-0.5c-0.481-0.612-0.953-1.231-1.45-1.829l-0.62,0.515
			C231.22,104.31,231.688,104.924,232.165,105.53z" />
              <path fill="#808080" d="M175.367,72.279l0.128-0.833c-1.029-0.158-2.07-0.275-3.109-0.398l-0.099,0.838
			C173.316,72.008,174.348,72.123,175.367,72.279z" />
              <path fill="#808080" d="M242.419,121.905l0.737-0.358c-0.453-0.936-0.938-1.854-1.422-2.773l-0.723,0.382
			C241.491,120.067,241.971,120.977,242.419,121.905z" />
              <path fill="#808080" d="M92.745,218.003l-0.621,0.514c0.662,0.797,1.347,1.575,2.036,2.349l0.602-0.535
			C94.08,219.564,93.401,218.793,92.745,218.003z" />
              <path fill="#808080" d="M72.126,160.83c0-0.94,0.042-1.869,0.071-2.802L71.35,158c-0.029,0.942-0.072,1.881-0.072,2.83
			c0,0.089,0.006,0.177,0.007,0.266h0.848C72.132,161.008,72.126,160.92,72.126,160.83z" />
              <path fill="#808080" d="M230.728,103.716l0.62-0.515c-0.664-0.801-1.353-1.581-2.044-2.359l-0.602,0.536
			C229.388,102.149,230.07,102.922,230.728,103.716z" />
              <path fill="#808080" d="M226.534,222.63l0.584,0.554c0.717-0.752,1.428-1.511,2.119-2.287l-0.603-0.534
			C227.949,221.132,227.245,221.884,226.534,222.63z" />
              <path fill="#808080" d="M108.378,232.809l-0.482,0.649c0.833,0.619,1.683,1.215,2.537,1.806l0.46-0.666
			C110.046,234.013,109.204,233.422,108.378,232.809z" />
              <path fill="#808080" d="M75.441,136.699l-0.803-0.226c-0.28,1.001-0.548,2.007-0.794,3.022l0.814,0.199
			C74.9,138.689,75.164,137.691,75.441,136.699z" />
              <path fill="#808080" d="M81.079,199.902l-0.738,0.357c0.453,0.931,0.932,1.847,1.415,2.759l0.723-0.381
			C82.001,201.732,81.527,200.825,81.079,199.902z" />
              <path fill="#808080" d="M74.086,179.49l-0.821,0.173c0.217,1.018,0.451,2.03,0.702,3.035l0.813-0.2
			C74.532,181.502,74.299,180.499,74.086,179.49z" />
              <path fill="#808080" d="M153.761,71.615l-0.073-0.843c-1.041,0.092-2.075,0.207-3.105,0.334l0.102,0.838
			C151.706,71.819,152.73,71.706,153.761,71.615z" />
              <path fill="#808080" d="M190.462,245.675l0.267,0.786c0.988-0.336,1.972-0.68,2.944-1.049l-0.294-0.773
			C192.416,245.003,191.441,245.343,190.462,245.675z" />
              <path fill="#808080" d="M215.036,88.846l0.481-0.65c-0.837-0.622-1.691-1.221-2.55-1.815l-0.459,0.667
			C213.36,87.636,214.206,88.23,215.036,88.846z" />
              <path fill="#808080" d="M209.906,236.331l0.439,0.683c0.873-0.559,1.741-1.125,2.593-1.713l-0.461-0.666
			C211.632,235.218,210.771,235.777,209.906,236.331z" />
              <path fill="#808080" d="M249.389,142.394l0.821-0.174c-0.215-1.023-0.456-2.036-0.705-3.045l-0.813,0.202
			C248.939,140.377,249.177,141.381,249.389,142.394z" />
              <path fill="#808080" d="M132.601,76.108l-0.268-0.785c-0.988,0.34-1.968,0.694-2.94,1.067l0.294,0.773
			C130.65,76.793,131.623,76.444,132.601,76.108z" />
              <path fill="#808080" d="M247.849,185.433l0.803,0.227c0.286-0.999,0.565-2,0.817-3.012l-0.813-0.2
			C248.407,183.451,248.131,184.443,247.849,185.433z" />
              <path fill="#808080" d="M127.1,243.478l-0.319,0.761c0.959,0.403,1.933,0.778,2.909,1.149l0.293-0.773
			C129.015,244.248,128.05,243.877,127.1,243.478z" />
              <path fill="#808080" d="M113.151,85.565l-0.439-0.682c-0.874,0.566-1.739,1.143-2.592,1.738l0.461,0.665
			C111.427,86.697,112.284,86.125,113.151,85.565z" />
              <path fill="#808080" d="M196.221,78.142l0.318-0.761c-0.964-0.404-1.94-0.783-2.921-1.154l-0.292,0.774
			C194.299,77.368,195.266,77.743,196.221,78.142z" />
              <path fill="#808080" d="M169.368,250.068l0.073,0.843c1.035-0.088,2.064-0.194,3.089-0.317l-0.101-0.838
			C171.413,249.877,170.393,249.981,169.368,250.068z" />
              <path fill="#808080" d="M83.732,116.748l-0.708-0.403c-0.514,0.906-1.013,1.82-1.497,2.745l0.724,0.38
			C82.73,118.552,83.224,117.646,83.732,116.748z" />
              <path fill="#808080" d="M239.442,205.346l0.707,0.404c0.52-0.904,1.03-1.813,1.519-2.736l-0.724-0.38
			C240.461,203.549,239.956,204.45,239.442,205.346z" />
              <path fill="#808080" d="M147.854,249.346l-0.129,0.833c1.022,0.159,2.055,0.281,3.088,0.405l0.101-0.838
			C149.891,249.623,148.866,249.503,147.854,249.346z" />
              <path fill="#808080"
                d="M251.297,160.848c0,1.09-0.044,2.17-0.082,3.251l0.847,0.029c0.039-1.09,0.083-2.18,0.083-3.28H251.297z" />
              <path fill="#808080" d="M96.558,99.379l-0.584-0.554c-0.715,0.757-1.417,1.524-2.105,2.306l0.604,0.534
			C95.154,100.89,95.85,100.129,96.558,99.379z" />
              <path fill="#808080" d="M100.226,225.952l-0.553,0.585c0.738,0.697,1.485,1.384,2.246,2.056l0.534-0.603
			C101.698,227.323,100.957,226.642,100.226,225.952z" />
              <path fill="#808080" d="M117.491,238.73l-0.403,0.708c0.9,0.513,1.808,1.013,2.727,1.496l0.379-0.724
			C119.283,239.733,118.383,239.238,117.491,238.73z" />
              <path fill="#808080" d="M161.712,71.245c0.925,0,1.841,0.042,2.759,0.07l0.026-0.847c-0.928-0.028-1.852-0.071-2.786-0.071
			c-0.11,0-0.219,0.008-0.329,0.008l0.002,0.848C161.495,71.252,161.602,71.245,161.712,71.245z" />
              <path fill="#808080" d="M86.442,209.384l-0.682,0.439c0.568,0.878,1.147,1.746,1.744,2.602l0.665-0.462
			C87.577,211.115,87.004,210.254,86.442,209.384z" />
              <path fill="#808080" d="M72.505,168.893l-0.843,0.074c0.093,1.039,0.211,2.071,0.339,3.101l0.838-0.103
			C72.713,170.945,72.597,169.922,72.505,168.893z" />
              <path fill="#808080" d="M237.143,112.529l0.683-0.439c-0.563-0.877-1.135-1.747-1.727-2.603l-0.666,0.461
			C236.019,110.796,236.585,111.659,237.143,112.529z" />
              <path fill="#808080" d="M104.334,92.042l-0.515-0.62c-0.805,0.673-1.597,1.36-2.377,2.06l0.536,0.601
			C102.752,93.39,103.536,92.708,104.334,92.042z" />
              <path fill="#808080" d="M246.556,132.079l0.786-0.267c-0.338-0.995-0.685-1.985-1.057-2.964l-0.773,0.293
			C245.879,130.111,246.221,131.093,246.556,132.079z" />
              <path fill="#808080" d="M122.523,80.258l-0.357-0.738c-0.944,0.461-1.875,0.944-2.801,1.436l0.381,0.723
			C120.665,81.192,121.587,80.714,122.523,80.258z" />
              <path fill="#808080" d="M250.953,153.218l0.843-0.073c-0.088-1.042-0.194-2.079-0.317-3.11l-0.838,0.102
			C250.762,151.158,250.866,152.185,250.953,153.218z" />
              <path fill="#808080" d="M89.569,107.728l-0.65-0.481c-0.616,0.834-1.216,1.679-1.804,2.535l0.667,0.459
			C88.364,109.393,88.959,108.555,89.569,107.728z" />
              <path fill="#808080" d="M78.933,126.551l-0.762-0.318c-0.4,0.962-0.783,1.933-1.15,2.911l0.774,0.291
			C78.158,128.466,78.538,127.504,78.933,126.551z" />
              <path fill="#808080" d="M76.993,189.952l-0.786,0.268c0.34,0.987,0.694,1.966,1.067,2.937l0.773-0.294
			C77.678,191.901,77.329,190.93,76.993,189.952z" />
              <path fill="#808080" d="M223.358,95.862l0.554-0.585c-0.776-0.737-1.561-1.462-2.363-2.171l-0.534,0.603
			C221.81,94.412,222.588,95.132,223.358,95.862z" />
              <path fill="#808080" d="M73.134,147.378L72.3,147.25c-0.155,1.024-0.274,2.06-0.394,3.095l0.839,0.099
			C72.863,149.419,72.981,148.393,73.134,147.378z" />
              <path fill="#808080" d="M142.986,73.219l-0.174-0.821c-1.023,0.218-2.04,0.453-3.051,0.706l0.202,0.813
			C140.965,73.667,141.972,73.435,142.986,73.219z" />
              <path fill="#808080" d="M137.43,247.058l-0.225,0.803c0.989,0.279,1.982,0.548,2.984,0.793l0.199-0.814
			C139.393,247.599,138.41,247.334,137.43,247.058z" />
              <path fill="#808080" d="M233.574,214.328l0.65,0.482c0.615-0.824,1.202-1.67,1.79-2.515l-0.666-0.46
			C234.765,212.673,234.183,213.51,233.574,214.328z" />
              <path fill="#808080" d="M244.301,195.592l0.761,0.319c0.409-0.967,0.784-1.952,1.16-2.936l-0.774-0.292
			C245.076,193.658,244.705,194.633,244.301,195.592z" />
              <path fill="#808080" d="M218.746,229.916l0.515,0.62c0.801-0.662,1.578-1.352,2.356-2.041l-0.536-0.602
			C220.311,228.576,219.541,229.26,218.746,229.916z" />
              <path fill="#808080" d="M185.843,74.56l0.225-0.804c-0.997-0.279-1.999-0.546-3.01-0.791l-0.198,0.814
			C183.862,74.021,184.854,74.284,185.843,74.56z" />
              <path fill="#808080" d="M205.877,82.899l0.402-0.709c-0.907-0.516-1.821-1.018-2.747-1.503l-0.379,0.725
			C204.071,81.892,204.979,82.388,205.877,82.899z" />
              <path fill="#808080" d="M250.214,174.758l0.833,0.129c0.16-1.019,0.283-2.049,0.408-3.078l-0.838-0.1
			C250.493,172.728,250.372,173.749,250.214,174.758z" />
              <path fill="#808080" d="M200.536,241.589l0.357,0.739c0.945-0.456,1.87-0.947,2.797-1.435l-0.381-0.724
			C202.39,240.652,201.473,241.138,200.536,241.589z" />
              <path fill="#808080" d="M180.113,248.516l0.173,0.821c1.019-0.214,2.027-0.454,3.033-0.702l-0.201-0.813
			C182.122,248.067,181.122,248.306,180.113,248.516z" />
              <path fill="#808080" d="M161.712,250.416c-1.014,0-2.017-0.043-3.022-0.077l-0.028,0.847c1.015,0.034,2.027,0.077,3.05,0.077
			c0.017,0,0.035-0.001,0.052-0.001l-0.002-0.847C161.745,250.415,161.729,250.416,161.712,250.416z" />
              <path fill="#808080" d="M230.161,218.6l0.617,0.519c0.666-0.788,1.314-1.592,1.953-2.402l-0.635-0.498
			C231.462,217.022,230.821,217.819,230.161,218.6z" />
              <path fill="#808080" d="M153.224,250.005l-0.079,0.842c1.027,0.097,2.06,0.174,3.097,0.236l0.05-0.845
			C155.265,250.177,154.242,250.101,153.224,250.005z" />
              <path fill="#808080" d="M72.192,163.434l-0.847,0.023c0.03,1.043,0.07,2.082,0.135,3.116l0.845-0.052
			C72.26,165.497,72.221,164.467,72.192,163.434z" />
              <path fill="#808080" d="M214.402,233.266l0.478,0.653c0.84-0.613,1.664-1.244,2.482-1.884l-0.499-0.635
			C216.052,232.035,215.235,232.659,214.402,233.266z" />
              <path fill="#808080" d="M239.974,117.239l0.711-0.398c-0.509-0.91-1.02-1.818-1.559-2.708l-0.696,0.421
			C238.963,115.437,239.47,116.337,239.974,117.239z" />
              <path fill="#808080" d="M148.374,72.238l-0.124-0.834c-1.036,0.155-2.06,0.347-3.084,0.537l0.152,0.827
			C146.333,72.58,147.348,72.391,148.374,72.238z" />
              <path fill="#808080" d="M74.129,141.983l-0.82-0.178c-0.218,1.013-0.408,2.037-0.591,3.062l0.828,0.15
			C73.727,144.001,73.914,142.987,74.129,141.983z" />
              <path fill="#808080" d="M242.007,200.561l0.735,0.362c0.466-0.937,0.909-1.887,1.342-2.842l-0.75-0.337
			C242.905,198.691,242.468,199.632,242.007,200.561z" />
              <path fill="#808080" d="M81.182,121.557l-0.735-0.361c-0.458,0.935-0.887,1.885-1.313,2.838l0.75,0.336
			C80.306,123.426,80.73,122.484,81.182,121.557z" />
              <path fill="#808080" d="M251.243,158.688l0.847-0.022c-0.025-1.045-0.052-2.088-0.112-3.124l-0.845,0.051
			C251.193,156.619,251.219,157.653,251.243,158.688z" />
              <path fill="#808080" d="M108.656,88.654l-0.478-0.652c-0.843,0.621-1.666,1.265-2.486,1.915l0.499,0.634
			C107.004,89.908,107.821,89.269,108.656,88.654z" />
              <path fill="#808080" d="M127.522,78.016l-0.313-0.763c-0.97,0.402-1.925,0.83-2.877,1.264l0.338,0.749
			C125.614,78.837,126.561,78.413,127.522,78.016z" />
              <path fill="#808080" d="M249.184,180.155l0.819,0.178c0.223-1.01,0.425-2.026,0.614-3.048l-0.827-0.151
			C249.604,178.147,249.404,179.155,249.184,180.155z" />
              <path fill="#808080" d="M248.156,137.311l0.805-0.22c-0.276-1.012-0.55-2.024-0.86-3.022l-0.796,0.248
			C247.612,135.306,247.884,136.309,248.156,137.311z" />
              <path fill="#808080" d="M75.378,184.74l-0.805,0.221c0.279,1.005,0.556,2.01,0.869,3.001l0.794-0.248
			C75.927,186.732,75.653,185.736,75.378,184.74z" />
              <path fill="#808080" d="M92.946,103.427l-0.617-0.519c-0.666,0.796-1.307,1.612-1.946,2.431l0.635,0.498
			C91.65,105.025,92.286,104.216,92.946,103.427z" />
              <path fill="#808080" d="M210.557,85.748l0.443-0.68c-0.873-0.57-1.746-1.14-2.64-1.68l-0.42,0.697
			C208.825,84.619,209.691,85.183,210.557,85.748z" />
              <path fill="#808080" d="M191.095,76.2l0.272-0.784c-0.98-0.341-1.958-0.684-2.953-0.992l-0.246,0.796
			C189.154,75.524,190.124,75.863,191.095,76.2z" />
              <path fill="#808080" d="M96.36,222.074l-0.588,0.55c0.7,0.746,1.397,1.493,2.121,2.215l0.569-0.569
			C97.745,223.555,97.053,222.814,96.36,222.074z" />
              <path fill="#808080" d="M227.231,99.762l0.588-0.55c-0.738-0.791-1.476-1.582-2.241-2.346l-0.569,0.569
			C225.767,98.194,226.499,98.978,227.231,99.762z" />
              <path fill="#808080" d="M174.734,249.463l0.123,0.835c1.031-0.151,2.051-0.333,3.071-0.519l-0.152-0.827
			C176.766,249.135,175.755,249.314,174.734,249.463z" />
              <path fill="#808080" d="M195.534,243.79l0.313,0.764c0.969-0.397,1.927-0.815,2.879-1.244l-0.338-0.75
			C197.444,242.985,196.494,243.398,195.534,243.79z" />
              <path fill="#808080" d="M112.832,235.891l-0.443,0.679c0.868,0.567,1.735,1.135,2.623,1.673l0.421-0.697
			C114.552,237.015,113.692,236.453,112.832,235.891z" />
              <path fill="#808080" d="M83.61,204.701l-0.711,0.398c0.512,0.909,1.024,1.818,1.566,2.707l0.695-0.422
			C84.623,206.503,84.117,205.602,83.61,204.701z" />
              <path fill="#808080" d="M132.2,245.417l-0.272,0.784c0.972,0.34,1.943,0.686,2.93,0.993l0.247-0.796
			C134.126,246.094,133.164,245.753,132.2,245.417z" />
              <path fill="#808080" d="M169.959,71.638l0.078-0.842c-1.032-0.095-2.068-0.178-3.11-0.237l-0.049,0.845
			C167.91,71.462,168.937,71.544,169.959,71.638z" />
              <path fill="#808080" d="M250.34,147.779l0.835-0.124c-0.152-1.036-0.336-2.06-0.523-3.084l-0.827,0.152
			C250.01,145.737,250.191,146.753,250.34,147.779z" />
              <path fill="#808080" d="M250.884,169.343l0.842,0.078c0.098-1.03,0.174-2.066,0.237-3.106l-0.845-0.049
			C251.056,167.296,250.981,168.322,250.884,169.343z" />
              <path fill="#808080" d="M137.827,74.49l-0.221-0.805c-1.008,0.279-2.017,0.558-3.011,0.871l0.248,0.794
			C135.827,75.04,136.827,74.766,137.827,74.49z" />
              <path fill="#808080" d="M86.556,112.098l-0.68-0.443c-0.567,0.871-1.132,1.743-1.67,2.634l0.697,0.421
			C85.436,113.826,85.995,112.962,86.556,112.098z" />
              <path fill="#808080" d="M142.542,248.339l-0.178,0.82c1.007,0.22,2.022,0.418,3.041,0.604l0.151-0.828
			C144.545,248.751,143.539,248.556,142.542,248.339z" />
              <path fill="#808080" d="M201.175,80.398l0.361-0.735c-0.936-0.461-1.886-0.896-2.84-1.325l-0.336,0.75
			C199.305,79.512,200.247,79.942,201.175,80.398z" />
              <path fill="#808080" d="M163.949,250.36l0.022,0.847c1.042-0.026,2.081-0.055,3.114-0.116l-0.051-0.845
			C166.011,250.306,164.981,250.334,163.949,250.36z" />
              <path fill="#808080" d="M122.171,241.223l-0.362,0.735c0.936,0.462,1.886,0.9,2.84,1.33l0.337-0.75
			C124.04,242.112,123.099,241.68,122.171,241.223z" />
              <path fill="#808080" d="M100.385,95.558l-0.55-0.588c-0.747,0.702-1.495,1.405-2.218,2.132l0.569,0.569
			C98.903,96.95,99.644,96.254,100.385,95.558z" />
              <path fill="#808080" d="M246.269,190.429l0.784,0.272c0.343-0.977,0.688-1.952,0.998-2.944l-0.795-0.246
			C246.95,188.494,246.608,189.461,246.269,190.429z" />
              <path fill="#808080" d="M117.802,82.752l-0.398-0.711c-0.911,0.515-1.823,1.029-2.714,1.573l0.422,0.695
			C115.994,83.769,116.898,83.261,117.802,82.752z" />
              <path fill="#808080" d="M244.634,126.915l0.764-0.313c-0.399-0.971-0.82-1.93-1.251-2.884l-0.749,0.339
			C243.823,125.002,244.24,125.952,244.634,126.915z" />
              <path fill="#808080" d="M222.697,226.428l0.55,0.588c0.79-0.735,1.578-1.47,2.341-2.233l-0.569-0.569
			C224.263,224.97,223.48,225.7,222.697,226.428z" />
              <path fill="#808080" d="M185.256,247.268l0.22,0.805c1.008-0.275,2.018-0.548,3.012-0.857l-0.248-0.796
			C187.255,246.726,186.255,246.996,185.256,247.268z" />
              <path fill="#808080" d="M72.517,152.608l-0.842-0.079c-0.094,1.03-0.177,2.062-0.237,3.101l0.845,0.05
			C72.342,154.651,72.424,153.628,72.517,152.608z" />
              <path fill="#808080" d="M234.052,108.006l0.652-0.478c-0.619-0.845-1.258-1.674-1.906-2.497l-0.634,0.5
			C232.806,106.346,233.439,107.167,234.052,108.006z" />
              <path fill="#808080" d="M89.44,213.751l-0.653,0.478c0.615,0.837,1.251,1.657,1.893,2.472l0.634-0.499
			C90.679,215.394,90.049,214.581,89.44,213.751z" />
              <path fill="#808080" d="M205.263,239.115l0.398,0.712c0.907-0.507,1.812-1.017,2.7-1.554l-0.422-0.696
			C207.059,238.108,206.163,238.614,205.263,239.115z" />
              <path fill="#808080" d="M78.86,194.926l-0.764,0.313c0.4,0.968,0.825,1.922,1.257,2.873l0.749-0.338
			C79.675,196.831,79.255,195.885,78.86,194.926z" />
              <path fill="#808080" d="M219.309,92.232l0.518-0.617c-0.796-0.669-1.609-1.317-2.427-1.959l-0.497,0.635
			C217.714,90.927,218.52,91.569,219.309,92.232z" />
              <path fill="#808080" d="M73.115,174.138l-0.834,0.123c0.154,1.032,0.344,2.051,0.533,3.071l0.827-0.152
			C73.455,176.17,73.268,175.16,73.115,174.138z" />
              <path fill="#808080" d="M236.7,209.824l0.68,0.443c0.57-0.87,1.143-1.738,1.683-2.629l-0.697-0.42
			C237.831,208.1,237.264,208.961,236.7,209.824z" />
              <path fill="#808080" d="M180.713,73.283l0.178-0.82c-1.016-0.22-2.041-0.415-3.069-0.601l-0.15,0.828
			C178.691,72.874,179.707,73.066,180.713,73.283z" />
              <path fill="#808080" d="M77.052,131.534l-0.784-0.273c-0.339,0.975-0.678,1.95-0.984,2.94l0.796,0.247
			C76.382,133.466,76.718,132.501,77.052,131.534z" />
              <path fill="#808080" d="M104.135,229.447l-0.519,0.617c0.789,0.663,1.595,1.304,2.406,1.94l0.499-0.635
			C105.717,230.739,104.917,230.104,104.135,229.447z" />
              <path fill="#808080" d="M159.202,71.308l-0.023-0.847c-1.046,0.029-2.089,0.066-3.126,0.131l0.052,0.845
			C157.133,71.373,158.166,71.337,159.202,71.308z" />
              <path fill="#808080" d="M106.739,91.246l-0.548-0.695c-0.623,0.493-1.248,0.982-1.857,1.491l0.567,0.682
			C105.504,92.219,106.123,91.734,106.739,91.246z" />
              <path fill="#808080" d="M95.136,102.252l-0.664-0.587c-0.513,0.583-1.028,1.166-1.526,1.762l0.679,0.57
			C94.118,103.406,94.627,102.829,95.136,102.252z" />
              <path fill="#808080" d="M98.814,98.299l-0.627-0.627c-0.555,0.558-1.089,1.136-1.629,1.708l0.644,0.61
			C97.736,99.423,98.265,98.851,98.814,98.299z" />
              <path fill="#808080" d="M102.568,94.744l-0.59-0.662c-0.539,0.483-1.065,0.979-1.593,1.475l0.606,0.647
			C101.513,95.714,102.034,95.223,102.568,94.744z" />
              <path fill="#808080" d="M111.084,88.011l-0.503-0.726c-0.646,0.45-1.291,0.902-1.925,1.369l0.522,0.713
			C109.806,88.905,110.445,88.457,111.084,88.011z" />
              <path fill="#808080" d="M91.715,106.383l-0.697-0.546c-0.488,0.627-0.977,1.251-1.449,1.891l0.71,0.526
			C90.747,107.621,91.231,107.003,91.715,106.383z" />
              <path fill="#808080" d="M224.381,98.064l0.627-0.627c-0.538-0.537-1.1-1.051-1.651-1.574l-0.61,0.644
			C223.293,97.024,223.849,97.532,224.381,98.064z" />
              <path fill="#808080" d="M220.427,94.374l0.587-0.664c-0.564-0.499-1.13-0.994-1.706-1.478l-0.57,0.679
			C219.309,93.39,219.869,93.88,220.427,94.374z" />
              <path fill="#808080" d="M231.469,106.078l0.695-0.548c-0.477-0.606-0.944-1.22-1.436-1.814l-0.682,0.566
			C230.534,104.87,230.997,105.478,231.469,106.078z" />
              <path fill="#808080" d="M228.041,101.967l0.662-0.589c-0.484-0.545-0.975-1.083-1.472-1.616l-0.648,0.606
			C227.075,100.896,227.561,101.428,228.041,101.967z" />
              <path fill="#808080" d="M234.707,110.45l0.726-0.503c-0.452-0.654-0.912-1.301-1.381-1.942l-0.713,0.522
			C233.803,109.162,234.259,109.803,234.707,110.45z" />
              <path fill="#808080" d="M115.568,85.061l-0.457-0.752c-0.663,0.405-1.308,0.835-1.96,1.256l0.477,0.741
			C114.272,85.888,114.911,85.462,115.568,85.061z" />
              <path fill="#808080" d="M202.749,82.188l0.405-0.776c-0.657-0.343-1.313-0.686-1.979-1.014l-0.385,0.785
			C201.449,81.507,202.099,81.847,202.749,82.188z" />
              <path fill="#808080" d="M237.678,115.01l0.752-0.455c-0.414-0.685-0.855-1.353-1.287-2.026l-0.741,0.476
			C236.83,113.671,237.267,114.331,237.678,115.01z" />
              <path fill="#808080" d="M212.007,87.775l0.501-0.727c-0.643-0.444-1.296-0.873-1.951-1.3l-0.481,0.738
			C210.725,86.909,211.371,87.335,212.007,87.775z" />
              <path fill="#808080" d="M207.486,84.837l0.454-0.753c-0.678-0.409-1.372-0.794-2.062-1.186l-0.433,0.763
			C206.127,84.05,206.814,84.431,207.486,84.837z" />
              <path fill="#808080" d="M249.797,150.239l0.843-0.103c-0.094-0.788-0.186-1.576-0.3-2.357l-0.841,0.125
			C249.613,148.678,249.704,149.459,249.797,150.239z" />
              <path fill="#808080" d="M248.987,144.877l0.838-0.154c-0.141-0.778-0.275-1.558-0.436-2.328l-0.836,0.177
			C248.714,143.334,248.846,144.107,248.987,144.877z" />
              <path fill="#808080" d="M250.288,155.644l0.845-0.051c-0.046-0.796-0.114-1.585-0.181-2.376l-0.844,0.074
			C250.174,154.074,250.242,154.856,250.288,155.644z" />
              <path fill="#808080" d="M247.862,139.583l0.831-0.206c-0.17-0.692-0.35-1.38-0.537-2.066l-0.828,0.226
			C247.513,138.216,247.693,138.897,247.862,139.583z" />
              <path fill="#808080" d="M244.702,129.448l0.81-0.307c-0.283-0.747-0.576-1.489-0.878-2.226l-0.803,0.329
			C244.131,127.974,244.421,128.709,244.702,129.448z" />
              <path fill="#808080" d="M246.484,134.573l0.822-0.256c-0.233-0.754-0.498-1.493-0.75-2.238l-0.817,0.278
			C245.989,133.094,246.253,133.826,246.484,134.573z" />
              <path fill="#808080" d="M242.603,124.415l0.794-0.359c-0.324-0.718-0.636-1.443-0.978-2.151l-0.786,0.381
			C241.972,122.987,242.282,123.704,242.603,124.415z" />
              <path fill="#808080" d="M240.238,119.565l0.774-0.409c-0.339-0.644-0.684-1.283-1.038-1.918l-0.766,0.428
			C239.559,118.295,239.901,118.928,240.238,119.565z" />
              <path fill="#808080" d="M216.356,90.988l0.546-0.697c-0.619-0.485-1.234-0.976-1.866-1.446l-0.527,0.71
			C215.135,90.021,215.743,90.508,216.356,90.988z" />
              <path fill="#808080" d="M145.473,73.606l-0.154-0.838c-0.78,0.144-1.56,0.287-2.332,0.451l0.177,0.836
			C143.928,73.892,144.701,73.75,145.473,73.606z" />
              <path fill="#808080" d="M135.099,76.173l-0.257-0.823c-0.754,0.237-1.496,0.502-2.241,0.758l0.279,0.817
			C133.618,76.671,134.353,76.408,135.099,76.173z" />
              <path fill="#808080" d="M140.17,74.748l-0.206-0.831c-0.717,0.179-1.426,0.377-2.137,0.573l0.227,0.828
			C138.757,75.123,139.46,74.926,140.17,74.748z" />
              <path fill="#808080" d="M150.788,72.787l-0.103-0.843c-0.771,0.095-1.546,0.179-2.31,0.294l0.125,0.841
			C149.257,72.966,150.024,72.882,150.788,72.787z" />
              <path fill="#808080" d="M198.003,79.883l0.356-0.795c-0.711-0.319-1.418-0.645-2.138-0.946l-0.335,0.801
			C196.6,79.242,197.299,79.566,198.003,79.883z" />
              <path fill="#808080" d="M120.156,82.454l-0.409-0.774c-0.655,0.348-1.301,0.709-1.946,1.073l0.429,0.766
			C118.869,83.157,119.508,82.799,120.156,82.454z" />
              <path fill="#808080" d="M125.028,80.06l-0.359-0.794c-0.718,0.326-1.439,0.647-2.146,0.991l0.38,0.787
			C123.604,80.702,124.318,80.384,125.028,80.06z" />
              <path fill="#808080" d="M156.158,72.282l-0.052-0.845c-0.785,0.049-1.566,0.11-2.345,0.178l0.074,0.844
			C154.607,72.391,155.381,72.331,156.158,72.282z" />
              <path fill="#808080" d="M129.996,77.972l-0.309-0.81c-0.725,0.278-1.449,0.558-2.165,0.853l0.33,0.803
			C128.56,78.525,129.278,78.248,129.996,77.972z" />
              <path fill="#808080" d="M187.914,76.042l0.254-0.822c-0.768-0.237-1.549-0.443-2.325-0.66l-0.231,0.827
			C186.38,75.602,187.154,75.807,187.914,76.042z" />
              <path fill="#808080" d="M182.658,74.611l0.202-0.832c-0.713-0.172-1.427-0.34-2.147-0.495l-0.181,0.835
			C181.244,74.273,181.952,74.439,182.658,74.611z" />
              <path fill="#808080" d="M193.021,77.812l0.306-0.81c-0.738-0.279-1.485-0.541-2.232-0.801l-0.283,0.816
			C191.552,77.274,192.29,77.535,193.021,77.812z" />
              <path fill="#808080" d="M172.186,72.73l0.1-0.843c-0.773-0.091-1.548-0.178-2.327-0.249l-0.078,0.844
			C170.653,72.553,171.42,72.64,172.186,72.73z" />
              <path fill="#808080" d="M166.829,72.249l0.049-0.846c-0.798-0.045-1.603-0.065-2.407-0.089l-0.027,0.846
			C165.241,72.184,166.038,72.204,166.829,72.249z" />
              <path fill="#808080" d="M177.521,73.529l0.152-0.839c-0.768-0.138-1.531-0.293-2.306-0.412l-0.13,0.841
			C176.004,73.238,176.76,73.392,177.521,73.529z" />
              <path fill="#808080" d="M161.388,72.099l-0.003-0.846c-0.732,0.003-1.456,0.035-2.183,0.055l0.023,0.846
			C159.946,72.134,160.663,72.102,161.388,72.099z" />
              <path fill="#808080" d="M73.129,155.73l-0.845-0.05c-0.044,0.779-0.063,1.564-0.087,2.348l0.846,0.028
			C73.067,157.279,73.085,156.502,73.129,155.73z" />
              <path fill="#808080" d="M187.984,245.599l0.256,0.822c0.748-0.232,1.482-0.495,2.222-0.746l-0.278-0.817
			C189.451,245.107,188.725,245.369,187.984,245.599z" />
              <path fill="#808080" d="M202.901,239.395l0.408,0.774c0.656-0.345,1.308-0.694,1.955-1.054l-0.428-0.766
			C204.196,238.707,203.55,239.054,202.901,239.395z" />
              <path fill="#808080" d="M177.623,248.113l0.154,0.838c0.78-0.141,1.563-0.274,2.337-0.435l-0.176-0.836
			C179.171,247.841,178.395,247.973,177.623,248.113z" />
              <path fill="#808080" d="M198.029,241.766l0.358,0.794c0.717-0.322,1.442-0.631,2.149-0.972l-0.379-0.786
			C199.457,241.141,198.739,241.447,198.029,241.766z" />
              <path fill="#808080" d="M145.707,248.097l-0.153,0.838c0.766,0.14,1.527,0.291,2.3,0.411l0.13-0.841
			C147.22,248.385,146.466,248.235,145.707,248.097z" />
              <path fill="#808080" d="M182.913,246.992l0.205,0.831c0.716-0.176,1.428-0.362,2.137-0.555l-0.226-0.828
			C184.327,246.631,183.622,246.817,182.913,246.992z" />
              <path fill="#808080" d="M151.014,248.903l-0.101,0.843c0.769,0.093,1.536,0.187,2.311,0.259l0.079-0.844
			C152.536,249.089,151.776,248.994,151.014,248.903z" />
              <path fill="#808080" d="M242.54,197.387l0.794,0.357c0.324-0.716,0.661-1.426,0.967-2.152l-0.801-0.335
			C243.196,195.976,242.862,196.678,242.54,197.387z" />
              <path fill="#808080" d="M166.983,249.4l0.051,0.845c0.782-0.046,1.558-0.112,2.334-0.177l-0.073-0.844
			C168.526,249.289,167.757,249.355,166.983,249.4z" />
              <path fill="#808080" d="M161.761,249.569l0.002,0.846c0.733,0,1.458-0.037,2.187-0.055l-0.022-0.846
			C163.205,249.532,162.487,249.568,161.761,249.569z" />
              <path fill="#808080" d="M172.327,248.913l0.102,0.843c0.77-0.092,1.541-0.182,2.305-0.293l-0.124-0.841
			C173.853,248.733,173.089,248.822,172.327,248.913z" />
              <path fill="#808080" d="M193.072,243.829l0.308,0.81c0.723-0.273,1.44-0.558,2.154-0.849l-0.329-0.803
			C194.498,243.276,193.788,243.558,193.072,243.829z" />
              <path fill="#808080" d="M231.399,215.671l0.696,0.547c0.495-0.628,0.999-1.249,1.478-1.891l-0.71-0.526
			C232.389,214.436,231.89,215.05,231.399,215.671z" />
              <path fill="#808080" d="M234.62,211.332l0.727,0.502c0.46-0.663,0.91-1.334,1.353-2.01l-0.738-0.481
			C235.522,210.012,235.076,210.676,234.62,211.332z" />
              <path fill="#808080" d="M227.971,219.774l0.664,0.588c0.517-0.58,1.025-1.168,1.526-1.762l-0.678-0.57
			C228.986,218.617,228.482,219.2,227.971,219.774z" />
              <path fill="#808080" d="M240.17,202.227l0.775,0.407c0.363-0.686,0.717-1.377,1.062-2.073l-0.784-0.386
			C240.88,200.864,240.53,201.548,240.17,202.227z" />
              <path fill="#808080" d="M237.613,206.764l0.753,0.454c0.373-0.615,0.718-1.247,1.076-1.871l-0.762-0.435
			C238.325,205.529,237.983,206.155,237.613,206.764z" />
              <path fill="#808080" d="M224.392,223.587l0.627,0.627c0.517-0.516,1.011-1.056,1.515-1.585l-0.643-0.611
			C225.392,222.542,224.903,223.076,224.392,223.587z" />
              <path fill="#808080" d="M207.484,236.825l0.455,0.752c0.665-0.401,1.313-0.828,1.966-1.246l-0.476-0.741
			C208.783,236.004,208.142,236.427,207.484,236.825z" />
              <path fill="#808080" d="M216.316,230.705l0.547,0.696c0.63-0.493,1.268-0.975,1.883-1.484l-0.566-0.682
			C217.571,229.739,216.939,230.217,216.316,230.705z" />
              <path fill="#808080" d="M211.974,233.909l0.502,0.726c0.649-0.447,1.289-0.906,1.926-1.369l-0.522-0.713
			C213.25,233.012,212.617,233.466,211.974,233.909z" />
              <path fill="#808080" d="M220.492,227.231l0.59,0.662c0.544-0.482,1.083-0.97,1.616-1.465l-0.606-0.648
			C221.564,226.271,221.031,226.753,220.492,227.231z" />
              <path fill="#808080" d="M156.343,249.393l-0.05,0.846c0.796,0.047,1.596,0.075,2.397,0.102l0.027-0.846
			C157.923,249.468,157.131,249.44,156.343,249.393z" />
              <path fill="#808080" d="M83.254,202.229l-0.774,0.408c0.367,0.694,0.746,1.381,1.13,2.064l0.766-0.429
			C83.994,203.596,83.618,202.917,83.254,202.229z" />
              <path fill="#808080" d="M80.897,197.415l-0.794,0.358c0.322,0.711,0.636,1.427,0.976,2.128l0.787-0.381
			C81.528,198.827,81.217,198.119,80.897,197.415z" />
              <path fill="#808080" d="M85.912,206.927l-0.752,0.457c0.412,0.677,0.852,1.335,1.282,1.999l0.741-0.477
			C86.756,208.249,86.321,207.597,85.912,206.927z" />
              <path fill="#808080" d="M78.857,192.555l-0.81,0.308c0.265,0.691,0.532,1.38,0.813,2.062l0.803-0.329
			C79.384,193.922,79.12,193.239,78.857,192.555z" />
              <path fill="#808080" d="M92.011,215.655l-0.696,0.547c0.475,0.602,0.941,1.211,1.43,1.801l0.683-0.565
			C92.943,216.853,92.481,216.251,92.011,215.655z" />
              <path fill="#808080" d="M88.894,211.46l-0.725,0.504c0.418,0.6,0.839,1.198,1.271,1.788l0.713-0.522
			C89.725,212.646,89.308,212.054,88.894,211.46z" />
              <path fill="#808080" d="M73.17,166.469l-0.845,0.052c0.05,0.794,0.11,1.584,0.18,2.372l0.844-0.074
			C73.279,168.038,73.219,167.255,73.17,166.469z" />
              <path fill="#808080" d="M73.682,171.861l-0.843,0.104c0.09,0.725,0.169,1.454,0.276,2.174l0.841-0.124
			C73.85,173.301,73.772,172.579,73.682,171.861z" />
              <path fill="#808080" d="M74.48,177.027l-0.838,0.154c0.142,0.772,0.282,1.545,0.444,2.31l0.836-0.176
			C74.761,178.557,74.622,177.792,74.48,177.027z" />
              <path fill="#808080" d="M75.611,182.293l-0.831,0.205c0.187,0.753,0.392,1.497,0.598,2.242l0.828-0.227
			C76.002,183.775,75.797,183.038,75.611,182.293z" />
              <path fill="#808080" d="M77.059,187.457l-0.823,0.257c0.237,0.753,0.501,1.493,0.757,2.238l0.817-0.279
			C77.556,188.936,77.294,188.203,77.059,187.457z" />
              <path fill="#808080" d="M103.04,227.325l-0.587,0.664c0.556,0.491,1.114,0.98,1.683,1.458l0.57-0.678
			C104.143,228.296,103.591,227.812,103.04,227.325z" />
              <path fill="#808080" d="M125.343,241.743l-0.357,0.794c0.703,0.316,1.401,0.642,2.114,0.941l0.336-0.801
			C126.73,242.381,126.039,242.057,125.343,241.743z" />
              <path fill="#808080" d="M120.601,239.435l-0.406,0.775c0.655,0.344,1.312,0.685,1.976,1.012l0.386-0.784
			C121.899,240.114,121.249,239.776,120.601,239.435z" />
              <path fill="#808080" d="M115.887,236.795l-0.455,0.752c0.677,0.409,1.37,0.792,2.058,1.184l0.434-0.763
			C117.244,237.579,116.557,237.2,115.887,236.795z" />
              <path fill="#808080" d="M135.359,245.576l-0.255,0.822c0.767,0.238,1.549,0.442,2.325,0.66l0.232-0.827
			C136.893,246.015,136.119,245.813,135.359,245.576z" />
              <path fill="#808080" d="M130.289,243.804l-0.307,0.81c0.734,0.278,1.475,0.543,2.218,0.802l0.284-0.816
			C131.748,244.344,131.015,244.081,130.289,243.804z" />
              <path fill="#808080" d="M95.425,219.742l-0.663,0.589c0.524,0.589,1.059,1.168,1.598,1.743l0.647-0.606
			C96.474,220.899,95.944,220.326,95.425,219.742z" />
              <path fill="#808080" d="M111.395,233.87l-0.502,0.727c0.639,0.441,1.288,0.869,1.939,1.294l0.482-0.738
			C112.669,234.732,112.028,234.308,111.395,233.87z" />
              <path fill="#808080" d="M99.091,223.644l-0.627,0.627c0.575,0.573,1.173,1.123,1.763,1.681l0.609-0.645
			C100.251,224.755,99.66,224.211,99.091,223.644z" />
              <path fill="#808080" d="M140.59,247.01l-0.203,0.832c0.715,0.175,1.433,0.34,2.155,0.497l0.182-0.835
			C142.009,247.347,141.298,247.183,140.59,247.01z" />
              <path fill="#808080" d="M107.068,230.673l-0.546,0.696c0.616,0.483,1.228,0.972,1.857,1.439l0.527-0.71
			C108.282,231.636,107.678,231.152,107.068,230.673z" />
              <path fill="#808080" d="M83.027,119.875l-0.775-0.406c-0.361,0.693-0.726,1.385-1.069,2.088l0.785,0.385
			C82.308,121.246,82.668,120.561,83.027,119.875z" />
              <path fill="#808080" d="M80.679,124.727l-0.795-0.356c-0.323,0.724-0.647,1.446-0.951,2.18l0.801,0.334
			C80.036,126.158,80.358,125.443,80.679,124.727z" />
              <path fill="#808080" d="M72.979,161.097h-0.846c0.002,0.783,0.037,1.559,0.059,2.337l0.846-0.023
			C73.015,162.641,72.981,161.873,72.979,161.097z" />
              <path fill="#808080" d="M88.509,110.742l-0.727-0.501c-0.419,0.611-0.821,1.235-1.226,1.857l0.738,0.481
			C87.695,111.964,88.094,111.347,88.509,110.742z" />
              <path fill="#808080" d="M247.824,182.243l0.832,0.204c0.188-0.76,0.36-1.525,0.529-2.293l-0.836-0.182
			C248.181,180.733,248.011,181.491,247.824,182.243z" />
              <path fill="#808080" d="M78.606,129.741l-0.811-0.305c-0.26,0.694-0.5,1.396-0.743,2.098l0.816,0.284
			C78.109,131.123,78.348,130.428,78.606,129.741z" />
              <path fill="#808080" d="M248.951,176.982l0.839,0.153c0.145-0.791,0.3-1.579,0.424-2.377l-0.842-0.13
			C249.249,175.418,249.096,176.199,248.951,176.982z" />
              <path fill="#808080" d="M249.774,171.607l0.843,0.101c0.095-0.787,0.193-1.573,0.268-2.366l-0.844-0.078
			C249.966,170.05,249.868,170.828,249.774,171.607z" />
              <path fill="#808080" d="M75.489,139.897l-0.831-0.203c-0.184,0.76-0.364,1.521-0.528,2.289l0.835,0.181
			C75.128,141.404,75.306,140.65,75.489,139.897z" />
              <path fill="#808080" d="M74.384,145.169l-0.839-0.152c-0.14,0.786-0.293,1.568-0.412,2.361l0.841,0.129
			C74.093,146.722,74.245,145.947,74.384,145.169z" />
              <path fill="#808080" d="M76.902,134.703l-0.822-0.255c-0.229,0.744-0.429,1.499-0.639,2.251l0.827,0.233
			C76.476,136.188,76.675,135.439,76.902,134.703z" />
              <path fill="#808080" d="M250.273,166.216l0.846,0.049c0.043-0.719,0.071-1.442,0.097-2.166l-0.846-0.028
			C250.343,164.788,250.316,165.504,250.273,166.216z" />
              <path fill="#808080" d="M251.243,158.688l-0.846,0.022c0.017,0.707,0.054,1.41,0.054,2.121c0,0.006,0,0.012,0,0.018h0.846
			c0-0.006,0-0.012,0-0.018C251.298,160.112,251.26,159.402,251.243,158.688z" />
              <path fill="#808080" d="M244.637,192.377l0.811,0.306c0.284-0.747,0.557-1.498,0.822-2.254l-0.816-0.283
			C245.19,190.894,244.919,191.638,244.637,192.377z" />
              <path fill="#808080" d="M246.433,187.256l0.824,0.254c0.214-0.686,0.395-1.385,0.592-2.078l-0.827-0.234
			C246.825,185.885,246.645,186.577,246.433,187.256z" />
              <path fill="#808080" d="M73.587,150.544l-0.843-0.1c-0.083,0.719-0.161,1.439-0.227,2.164l0.844,0.079
			C73.427,151.97,73.505,151.257,73.587,150.544z" />
              <path fill="#808080" d="M85.656,115.165l-0.752-0.455c-0.404,0.671-0.785,1.355-1.171,2.037l0.762,0.434
			C84.878,116.507,85.256,115.829,85.656,115.165z" />
              <path fill="#808080" d="M108.905,232.099l-0.527,0.71c0.826,0.613,1.668,1.204,2.515,1.788l0.502-0.727
			C110.556,233.291,109.722,232.706,108.905,232.099z" />
              <path fill="#808080" d="M169.295,249.224l0.073,0.844c1.025-0.087,2.045-0.191,3.06-0.312l-0.102-0.843
			C171.321,249.034,170.311,249.137,169.295,249.224z" />
              <path fill="#808080" d="M238.68,204.911l0.762,0.435c0.514-0.896,1.019-1.797,1.503-2.712l-0.775-0.407
			C239.69,203.133,239.19,204.024,238.68,204.911z" />
              <path fill="#808080" d="M76.268,136.932l-0.827-0.233c-0.277,0.992-0.54,1.989-0.784,2.995l0.831,0.203
			C75.731,138.902,75.993,137.915,76.268,136.932z" />
              <path fill="#808080" d="M72.972,160.83c0-0.93,0.042-1.851,0.07-2.775l-0.846-0.028c-0.029,0.933-0.071,1.863-0.071,2.802
			c0,0.089,0.007,0.177,0.007,0.266h0.846C72.978,161.008,72.972,160.92,72.972,160.83z" />
              <path fill="#808080" d="M195.886,78.943l0.335-0.801c-0.955-0.399-1.923-0.774-2.894-1.141l-0.306,0.81
			C193.983,78.176,194.941,78.547,195.886,78.943z" />
              <path fill="#808080" d="M132.88,76.925l-0.279-0.817c-0.979,0.336-1.951,0.685-2.914,1.054l0.309,0.81
			C130.949,77.606,131.911,77.259,132.88,76.925z" />
              <path fill="#808080" d="M214.509,89.556l0.527-0.71c-0.83-0.616-1.676-1.21-2.528-1.797l-0.501,0.727
			C212.85,88.357,213.688,88.946,214.509,89.556z" />
              <path fill="#808080" d="M127.435,242.677l-0.336,0.801c0.951,0.399,1.915,0.77,2.882,1.136l0.307-0.81
			C129.332,243.441,128.376,243.073,127.435,242.677z" />
              <path fill="#808080" d="M93.427,217.437l-0.683,0.565c0.656,0.791,1.335,1.561,2.017,2.329l0.663-0.589
			C94.749,218.983,94.077,218.22,93.427,217.437z" />
              <path fill="#808080" d="M250.369,164.071l0.846,0.028c0.039-1.081,0.082-2.161,0.082-3.251h-0.846
			C250.451,161.929,250.408,162.999,250.369,164.071z" />
              <path fill="#808080" d="M190.184,244.858l0.278,0.817c0.979-0.332,1.954-0.671,2.918-1.036l-0.308-0.81
			C192.118,244.191,191.153,244.528,190.184,244.858z" />
              <path fill="#808080" d="M113.628,86.306l-0.477-0.741c-0.867,0.56-1.724,1.132-2.57,1.72l0.503,0.726
			C111.921,87.428,112.77,86.861,113.628,86.306z" />
              <path fill="#808080" d="M230.046,104.282l0.682-0.566c-0.658-0.794-1.341-1.567-2.025-2.338l-0.662,0.589
			C228.719,102.731,229.395,103.496,230.046,104.282z" />
              <path fill="#808080" d="M225.891,222.019l0.643,0.611c0.711-0.746,1.415-1.497,2.1-2.267l-0.664-0.588
			C227.292,220.536,226.595,221.28,225.891,222.019z" />
              <path fill="#808080" d="M81.865,199.521l-0.787,0.381c0.448,0.923,0.923,1.83,1.401,2.736l0.774-0.408
			C82.78,201.333,82.31,200.435,81.865,199.521z" />
              <path fill="#808080" d="M248.553,142.571l0.836-0.177c-0.212-1.013-0.45-2.017-0.696-3.018l-0.831,0.206
			C248.106,140.574,248.343,141.568,248.553,142.571z" />
              <path fill="#808080" d="M175.237,73.12l0.13-0.841c-1.019-0.156-2.05-0.271-3.08-0.392l-0.1,0.843
			C173.206,72.851,174.228,72.966,175.237,73.12z" />
              <path fill="#808080" d="M153.835,72.46l-0.074-0.844c-1.031,0.091-2.056,0.204-3.077,0.329l0.103,0.843
			C151.799,72.663,152.813,72.55,153.835,72.46z" />
              <path fill="#808080" d="M247.022,185.199l0.827,0.234c0.282-0.99,0.558-1.982,0.807-2.985l-0.832-0.204
			C247.577,183.237,247.302,184.219,247.022,185.199z" />
              <path fill="#808080" d="M84.495,117.182l-0.762-0.434c-0.509,0.898-1.002,1.804-1.481,2.721l0.775,0.406
			C83.501,118.968,83.991,118.071,84.495,117.182z" />
              <path fill="#808080" d="M74.922,179.314l-0.836,0.176c0.214,1.009,0.447,2.011,0.694,3.007l0.831-0.205
			C75.365,181.306,75.135,180.314,74.922,179.314z" />
              <path fill="#808080" d="M97.201,99.989l-0.644-0.61c-0.708,0.75-1.404,1.511-2.086,2.285l0.664,0.587
			C95.811,101.485,96.5,100.732,97.201,99.989z" />
              <path fill="#808080" d="M241.633,122.286l0.786-0.381c-0.449-0.928-0.928-1.838-1.408-2.748l-0.774,0.409
			C240.713,120.466,241.188,121.367,241.633,122.286z" />
              <path fill="#808080" d="M209.43,235.59l0.476,0.741c0.866-0.554,1.726-1.113,2.571-1.696l-0.502-0.726
			C211.138,234.486,210.286,235.041,209.43,235.59z" />
              <path fill="#808080" d="M147.985,248.505l-0.13,0.841c1.012,0.157,2.036,0.277,3.059,0.4l0.101-0.843
			C150.001,248.78,148.987,248.661,147.985,248.505z" />
              <path fill="#808080" d="M73.974,147.507l-0.841-0.129c-0.153,1.015-0.271,2.04-0.39,3.066l0.843,0.1
			C73.705,149.528,73.822,148.512,73.974,147.507z" />
              <path fill="#808080" d="M137.661,246.231l-0.232,0.827c0.98,0.275,1.964,0.541,2.957,0.783l0.203-0.832
			C139.606,246.769,138.632,246.505,137.661,246.231z" />
              <path fill="#808080" d="M222.748,96.506l0.61-0.644c-0.769-0.73-1.548-1.45-2.343-2.153l-0.587,0.664
			C221.215,95.07,221.986,95.783,222.748,96.506z" />
              <path fill="#808080" d="M79.734,126.885l-0.801-0.334c-0.395,0.954-0.775,1.915-1.138,2.885l0.811,0.305
			C78.966,128.781,79.342,127.829,79.734,126.885z" />
              <path fill="#808080" d="M250.108,153.291l0.844-0.074c-0.087-1.032-0.191-2.059-0.313-3.082l-0.843,0.103
			C249.918,151.251,250.022,152.269,250.108,153.291z" />
              <path fill="#808080" d="M117.925,237.968l-0.434,0.763c0.893,0.508,1.792,1.003,2.704,1.48l0.406-0.775
			C119.699,238.962,118.808,238.471,117.925,237.968z" />
              <path fill="#808080" d="M73.349,168.818l-0.844,0.074c0.092,1.03,0.208,2.052,0.334,3.072l0.843-0.104
			C73.556,170.851,73.441,169.838,73.349,168.818z" />
              <path fill="#808080" d="M243.499,195.257l0.801,0.335c0.404-0.959,0.776-1.934,1.147-2.909l-0.811-0.306
			C244.268,193.342,243.9,194.308,243.499,195.257z" />
              <path fill="#808080" d="M90.279,108.254l-0.71-0.526c-0.61,0.827-1.205,1.665-1.787,2.513l0.727,0.501
			C89.085,109.902,89.675,109.073,90.279,108.254z" />
              <path fill="#808080" d="M77.81,189.673l-0.817,0.279c0.336,0.978,0.685,1.949,1.054,2.912l0.81-0.308
			C78.491,191.603,78.144,190.642,77.81,189.673z" />
              <path fill="#808080" d="M236.402,113.005l0.741-0.476c-0.558-0.869-1.124-1.733-1.71-2.581l-0.726,0.503
			C235.288,111.29,235.849,112.144,236.402,113.005z" />
              <path fill="#808080" d="M104.901,92.723l-0.567-0.682c-0.798,0.666-1.582,1.348-2.356,2.041l0.59,0.662
			C103.334,94.058,104.111,93.383,104.901,92.723z" />
              <path fill="#808080" d="M100.835,225.307l-0.609,0.645c0.731,0.691,1.472,1.371,2.226,2.038l0.587-0.664
			C102.293,226.665,101.559,225.991,100.835,225.307z" />
              <path fill="#808080" d="M87.182,208.907l-0.741,0.477c0.562,0.87,1.136,1.731,1.727,2.58l0.725-0.504
			C88.308,210.62,87.74,209.768,87.182,208.907z" />
              <path fill="#808080" d="M245.738,132.357l0.817-0.278c-0.334-0.986-0.677-1.968-1.044-2.938l-0.81,0.307
			C245.066,130.409,245.407,131.38,245.738,132.357z" />
              <path fill="#808080" d="M200.157,240.803l0.379,0.786c0.937-0.451,1.854-0.937,2.773-1.419l-0.408-0.774
			C201.992,239.874,201.084,240.355,200.157,240.803z" />
              <path fill="#808080" d="M232.863,213.801l0.71,0.526c0.609-0.817,1.191-1.655,1.773-2.493l-0.727-0.502
			C234.044,212.162,233.467,212.992,232.863,213.801z" />
              <path fill="#808080" d="M122.904,81.044l-0.38-0.787c-0.936,0.456-1.859,0.934-2.776,1.422l0.409,0.774
			C121.064,81.97,121.978,81.496,122.904,81.044z" />
              <path fill="#808080" d="M143.163,74.056l-0.177-0.836c-1.014,0.216-2.022,0.448-3.023,0.698l0.206,0.831
			C141.161,74.5,142.159,74.27,143.163,74.056z" />
              <path fill="#808080" d="M185.612,75.387l0.231-0.827c-0.988-0.276-1.981-0.538-2.983-0.781l-0.202,0.832
			C183.65,74.851,184.633,75.113,185.612,75.387z" />
              <path fill="#808080" d="M249.373,174.628l0.842,0.13c0.158-1.009,0.279-2.03,0.402-3.05l-0.843-0.101
			C249.651,172.618,249.53,173.628,249.373,174.628z" />
              <path fill="#808080" d="M161.712,72.091c0.917,0,1.823,0.042,2.733,0.069l0.027-0.846c-0.919-0.028-1.834-0.07-2.759-0.07
			c-0.109,0-0.217,0.008-0.326,0.008l0.003,0.846C161.496,72.099,161.603,72.091,161.712,72.091z" />
              <path fill="#808080" d="M218.18,229.234l0.566,0.682c0.794-0.656,1.564-1.34,2.335-2.023l-0.59-0.662
			C219.729,227.907,218.966,228.584,218.18,229.234z" />
              <path fill="#808080" d="M179.937,247.68l0.176,0.836c1.009-0.211,2.009-0.449,3.006-0.694l-0.205-0.831
			C181.926,247.234,180.936,247.471,179.937,247.68z" />
              <path fill="#808080" d="M205.444,83.662l0.433-0.763c-0.899-0.51-1.806-1.007-2.724-1.487l-0.405,0.776
			C203.657,82.663,204.554,83.156,205.444,83.662z" />
              <path fill="#808080" d="M161.712,249.57c-1.004,0-1.999-0.043-2.995-0.076l-0.027,0.846c1.005,0.033,2.009,0.077,3.022,0.077
			c0.017,0,0.034-0.001,0.051-0.001l-0.002-0.846C161.744,249.569,161.728,249.57,161.712,249.57z" />
              <path fill="#808080" d="M250.398,158.71l0.846-0.022c-0.024-1.035-0.051-2.069-0.11-3.095l-0.845,0.051
			C250.347,156.661,250.373,157.685,250.398,158.71z" />
              <path fill="#808080" d="M229.482,218.03l0.678,0.57c0.66-0.781,1.301-1.578,1.935-2.382l-0.696-0.547
			C230.772,216.467,230.136,217.256,229.482,218.03z" />
              <path fill="#808080" d="M76.206,184.513l-0.828,0.227c0.275,0.996,0.549,1.992,0.858,2.974l0.823-0.257
			C76.752,186.485,76.48,185.499,76.206,184.513z" />
              <path fill="#808080" d="M93.624,103.997l-0.679-0.57c-0.66,0.789-1.295,1.598-1.928,2.41l0.697,0.546
			C92.341,105.579,92.971,104.778,93.624,103.997z" />
              <path fill="#808080" d="M97.007,221.468l-0.647,0.606c0.693,0.74,1.385,1.481,2.103,2.197l0.627-0.627
			C98.379,222.935,97.694,222.201,97.007,221.468z" />
              <path fill="#808080" d="M73.038,163.411l-0.846,0.023c0.029,1.033,0.069,2.063,0.133,3.087l0.845-0.052
			C73.106,165.455,73.067,164.435,73.038,163.411z" />
              <path fill="#808080" d="M239.208,117.667l0.766-0.428c-0.503-0.902-1.01-1.802-1.544-2.684l-0.752,0.455
			C238.207,115.883,238.708,116.774,239.208,117.667z" />
              <path fill="#808080" d="M248.349,179.973l0.836,0.182c0.22-1,0.419-2.008,0.606-3.02l-0.839-0.153
			C248.766,177.985,248.568,178.982,248.349,179.973z" />
              <path fill="#808080" d="M84.376,204.272l-0.766,0.429c0.507,0.901,1.013,1.802,1.55,2.683l0.752-0.457
			C85.38,206.055,84.878,205.163,84.376,204.272z" />
              <path fill="#808080" d="M153.304,249.161l-0.079,0.844c1.018,0.096,2.041,0.172,3.068,0.233l0.05-0.846
			C155.325,249.332,154.312,249.256,153.304,249.161z" />
              <path fill="#808080" d="M210.076,86.486l0.481-0.738c-0.866-0.564-1.732-1.128-2.618-1.663l-0.454,0.753
			C208.363,85.367,209.219,85.926,210.076,86.486z" />
              <path fill="#808080" d="M127.852,78.819l-0.33-0.803c-0.961,0.397-1.908,0.821-2.852,1.25l0.359,0.794
			C125.963,79.634,126.9,79.213,127.852,78.819z" />
              <path fill="#808080" d="M247.328,137.537l0.828-0.226c-0.272-1.003-0.544-2.005-0.85-2.994l-0.822,0.256
			C246.788,135.551,247.058,136.545,247.328,137.537z" />
              <path fill="#808080" d="M169.881,72.482l0.078-0.844c-1.023-0.093-2.049-0.175-3.081-0.234l-0.049,0.846
			C167.852,72.308,168.868,72.389,169.881,72.482z" />
              <path fill="#808080" d="M213.88,232.553l0.522,0.713c0.833-0.607,1.65-1.231,2.461-1.866l-0.547-0.696
			C215.513,231.333,214.704,231.952,213.88,232.553z" />
              <path fill="#808080" d="M174.609,248.622l0.124,0.841c1.022-0.149,2.033-0.328,3.043-0.511l-0.154-0.838
			C176.622,248.295,175.621,248.474,174.609,248.622z" />
              <path fill="#808080" d="M132.484,244.601l-0.284,0.816c0.964,0.336,1.926,0.677,2.904,0.981l0.255-0.822
			C134.39,245.274,133.438,244.936,132.484,244.601z" />
              <path fill="#808080" d="M190.812,77.016l0.283-0.816c-0.971-0.337-1.941-0.676-2.927-0.98l-0.254,0.822
			C188.89,76.345,189.85,76.681,190.812,77.016z" />
              <path fill="#808080" d="M81.967,121.942l-0.785-0.385c-0.453,0.927-0.877,1.869-1.298,2.813l0.795,0.356
			C81.097,123.792,81.518,122.859,81.967,121.942z" />
              <path fill="#808080" d="M226.583,100.368l0.648-0.606c-0.732-0.784-1.463-1.569-2.222-2.326l-0.627,0.627
			C225.133,98.814,225.858,99.591,226.583,100.368z" />
              <path fill="#808080" d="M109.179,89.367l-0.522-0.713c-0.835,0.615-1.652,1.253-2.465,1.896l0.548,0.695
			C107.544,90.609,108.352,89.977,109.179,89.367z" />
              <path fill="#808080" d="M113.313,235.153l-0.482,0.738c0.86,0.561,1.72,1.123,2.601,1.656l0.455-0.752
			C115.016,236.267,114.165,235.71,113.313,235.153z" />
              <path fill="#808080" d="M195.205,242.987l0.329,0.803c0.961-0.392,1.91-0.805,2.854-1.229l-0.358-0.794
			C197.095,242.187,196.156,242.598,195.205,242.987z" />
              <path fill="#808080" d="M74.964,142.164l-0.835-0.181c-0.215,1.004-0.402,2.018-0.583,3.034l0.839,0.152
			C74.564,144.162,74.75,143.158,74.964,142.164z" />
              <path fill="#808080" d="M148.499,73.079l-0.125-0.841c-1.027,0.153-2.041,0.342-3.056,0.53l0.154,0.838
			C146.478,73.42,147.483,73.232,148.499,73.079z" />
              <path fill="#808080" d="M241.223,200.175l0.784,0.386c0.461-0.929,0.898-1.87,1.327-2.817l-0.794-0.357
			C242.114,198.324,241.679,199.255,241.223,200.175z" />
              <path fill="#808080" d="M79.663,194.597l-0.803,0.329c0.395,0.959,0.815,1.905,1.243,2.848l0.794-0.358
			C80.473,196.483,80.056,195.547,79.663,194.597z" />
              <path fill="#808080" d="M87.294,112.58l-0.738-0.481c-0.561,0.864-1.121,1.728-1.652,2.612l0.752,0.455
			C86.183,114.29,86.738,113.435,87.294,112.58z" />
              <path fill="#808080" d="M235.961,209.343l0.738,0.481c0.565-0.862,1.131-1.724,1.666-2.606l-0.753-0.454
			C237.083,207.637,236.521,208.489,235.961,209.343z" />
              <path fill="#808080" d="M73.957,174.014l-0.841,0.124c0.152,1.022,0.34,2.032,0.526,3.042l0.838-0.154
			C74.295,176.026,74.108,175.026,73.957,174.014z" />
              <path fill="#808080" d="M138.054,75.318l-0.227-0.828c-0.999,0.276-1.999,0.551-2.984,0.86l0.257,0.823
			C136.075,75.865,137.064,75.592,138.054,75.318z" />
              <path fill="#808080" d="M249.5,147.904l0.841-0.125c-0.15-1.026-0.331-2.042-0.515-3.056l-0.838,0.154
			C249.17,145.882,249.351,146.888,249.5,147.904z" />
              <path fill="#808080" d="M245.453,190.146l0.816,0.283c0.339-0.968,0.681-1.935,0.987-2.918l-0.824-0.254
			C246.128,188.229,245.79,189.187,245.453,190.146z" />
              <path fill="#808080" d="M159.225,72.154l-0.023-0.846c-1.036,0.029-2.069,0.065-3.096,0.129l0.052,0.845
			C157.175,72.219,158.199,72.182,159.225,72.154z" />
              <path fill="#808080" d="M233.339,108.528l0.713-0.522c-0.613-0.838-1.246-1.66-1.887-2.475l-0.695,0.548
			C232.104,106.886,232.732,107.699,233.339,108.528z" />
              <path fill="#808080" d="M122.557,240.439l-0.386,0.784c0.928,0.457,1.869,0.889,2.815,1.315l0.357-0.794
			C124.407,241.321,123.475,240.892,122.557,240.439z" />
              <path fill="#808080" d="M118.23,83.517l-0.429-0.766c-0.903,0.509-1.807,1.018-2.691,1.557l0.457,0.752
			C116.442,84.526,117.336,84.022,118.23,83.517z" />
              <path fill="#808080" d="M185.03,246.44l0.226,0.828c0.999-0.272,1.999-0.542,2.984-0.848l-0.256-0.822
			C187.009,245.902,186.019,246.17,185.03,246.44z" />
              <path fill="#808080" d="M200.79,81.183l0.385-0.785c-0.928-0.456-1.87-0.886-2.815-1.31l-0.356,0.795
			C198.939,80.304,199.871,80.73,200.79,81.183z" />
              <path fill="#808080" d="M142.723,247.503l-0.182,0.835c0.998,0.218,2.003,0.412,3.013,0.596l0.153-0.838
			C144.707,247.914,143.712,247.72,142.723,247.503z" />
              <path fill="#808080" d="M163.927,249.514l0.022,0.846c1.032-0.025,2.062-0.054,3.085-0.114l-0.051-0.845
			C165.97,249.46,164.949,249.489,163.927,249.514z" />
              <path fill="#808080" d="M250.04,169.264l0.844,0.078c0.096-1.02,0.172-2.047,0.234-3.077l-0.846-0.049
			C250.211,167.237,250.136,168.253,250.04,169.264z" />
              <path fill="#808080" d="M218.739,92.91l0.57-0.679c-0.789-0.663-1.595-1.304-2.407-1.94l-0.546,0.697
			C217.16,91.618,217.958,92.254,218.739,92.91z" />
              <path fill="#808080" d="M90.153,213.229l-0.713,0.522c0.609,0.83,1.239,1.643,1.875,2.451l0.696-0.547
			C91.38,214.855,90.756,214.051,90.153,213.229z" />
              <path fill="#808080" d="M73.361,152.687l-0.844-0.079c-0.093,1.02-0.175,2.043-0.234,3.072l0.845,0.05
			C73.187,154.711,73.269,153.697,73.361,152.687z" />
              <path fill="#808080" d="M204.835,238.35l0.428,0.766c0.899-0.501,1.796-1.008,2.676-1.539l-0.455-0.752
			C206.613,237.351,205.725,237.852,204.835,238.35z" />
              <path fill="#808080" d="M243.831,127.244l0.803-0.329c-0.394-0.963-0.811-1.913-1.237-2.858l-0.794,0.359
			C243.026,125.351,243.44,126.291,243.831,127.244z" />
              <path fill="#808080" d="M100.991,96.205l-0.606-0.647c-0.741,0.696-1.482,1.392-2.199,2.113l0.627,0.627
			C99.524,97.584,100.258,96.895,100.991,96.205z" />
              <path fill="#808080" d="M222.092,225.78l0.606,0.648c0.783-0.728,1.565-1.458,2.322-2.214l-0.627-0.627
			C223.642,224.336,222.867,225.059,222.092,225.78z" />
              <path fill="#808080" d="M104.706,228.769l-0.57,0.678c0.782,0.657,1.582,1.292,2.386,1.923l0.546-0.696
			C106.271,230.049,105.48,229.419,104.706,228.769z" />
              <path fill="#808080" d="M77.868,131.817l-0.816-0.284c-0.335,0.967-0.67,1.933-0.972,2.914l0.822,0.255
			C77.202,133.731,77.536,132.775,77.868,131.817z" />
              <path fill="#808080" d="M180.532,74.119l0.181-0.835c-1.007-0.217-2.022-0.409-3.041-0.593l-0.152,0.839
			C178.53,73.711,179.535,73.903,180.532,74.119z" />
            </g>
            <g>
              <g>
                <g>
                  <path fill="#808080" d="M172.909,306.599c0,0-0.511-57.752,0-68.732c0.511-10.98,12.837-16.662,12.837-16.662
					c6.628-2.734,12.695-6.55,17.982-11.228c13.246-11.718,21.597-28.843,21.597-47.918c0-35.322-28.379-63.955-63.7-63.955
					s-63.7,28.634-63.7,63.955c0,19.076,8.351,36.201,21.597,47.918c5.288,4.678,11.355,8.493,17.982,11.228
					c0,0,12.326,5.682,12.837,16.662c0.511,10.98,0,68.732,0,68.732" />
                  <path fill="#FFFFFF" d="M170.998,306.615c-0.021-2.36-0.505-57.93,0.002-68.837c0.233-5.016,2.74-9.784,7.25-13.788
					c3.319-2.947,6.559-4.457,6.696-4.52l0.071-0.031c6.382-2.633,12.251-6.298,17.445-10.893
					c6.523-5.77,11.669-12.69,15.296-20.568c3.753-8.151,5.656-16.872,5.656-25.919c0-8.383-1.627-16.51-4.837-24.155
					c-3.103-7.391-7.548-14.027-13.212-19.721c-5.668-5.699-12.273-10.172-19.633-13.295c-7.623-3.234-15.734-4.874-24.108-4.874
					s-16.486,1.64-24.108,4.874c-7.36,3.123-13.965,7.596-19.633,13.295c-5.663,5.695-10.108,12.33-13.212,19.721
					c-3.21,7.645-4.837,15.772-4.837,24.155c0,9.047,1.903,17.768,5.656,25.919c3.627,7.878,8.774,14.798,15.296,20.568
					c5.194,4.595,11.063,8.26,17.445,10.893l0.071,0.031c0.136,0.063,3.377,1.573,6.696,4.52c4.51,4.004,7.016,8.772,7.25,13.788
					c0.507,10.907,0.023,66.477,0.002,68.837l-3.821-0.034c0.005-0.577,0.504-57.824,0.002-68.626
					c-0.186-3.991-2.169-7.706-5.894-11.041c-2.745-2.458-5.496-3.812-5.807-3.962c-6.758-2.794-12.974-6.678-18.475-11.544
					c-6.922-6.124-12.385-13.469-16.235-21.832c-3.986-8.656-6.007-17.914-6.007-27.517c0-8.894,1.728-17.518,5.135-25.634
					c3.295-7.847,8.013-14.891,14.025-20.937c6.018-6.051,13.033-10.801,20.85-14.118c8.097-3.436,16.711-5.178,25.601-5.178
					s17.503,1.742,25.601,5.178c7.817,3.317,14.832,8.067,20.85,14.118c6.012,6.045,10.731,13.089,14.025,20.937
					c3.407,8.116,5.135,16.74,5.135,25.634c0,9.603-2.021,18.861-6.007,27.517c-3.851,8.363-9.313,15.708-16.235,21.832
					c-5.501,4.866-11.717,8.75-18.475,11.545c-0.301,0.144-3.056,1.499-5.807,3.961c-3.726,3.335-5.709,7.05-5.894,11.041
					c-0.502,10.802-0.003,68.049,0.002,68.626L170.998,306.615z" />
                </g>
                <g>
                  <rect x="158.349" y="342.559" fill="#FFFFFF" width="6.55" height="106.224" />
                </g>
                <g>
                  <path fill-rule="evenodd" clip-rule="evenodd" fill="#FFFFFF" d="M185.843,314.957c5.403-1.531,10.867,1.056,12.205,5.776
					c1.337,4.721-2.092,9.116-7.242,11.692c-5.151,2.575-15.215,6.145-16.552,1.423C172.916,329.127,180.44,316.488,185.843,314.957
					L185.843,314.957z M188.206,319.509L188.206,319.509c-1.97,1.736-2.859,8.195-1.342,9.918c1.517,1.721,5.262-1.273,6.937-3.284
					s2.237-4.939,0.72-6.66C193.004,317.761,190.177,317.772,188.206,319.509z" />
                </g>
                <g>
                  <path fill-rule="evenodd" clip-rule="evenodd" fill="#FFFFFF" d="M152.17,351.609h18.329c0.425-0.396,1.234-0.623,2.503-0.844
					l0.169-0.028l0.186-0.012c9.837-0.633,13.396-3.568,15.476-6.649h-54.997c2.081,3.08,5.639,6.016,15.475,6.648l0.186,0.011
					l0.169,0.03C150.935,350.985,151.745,351.213,152.17,351.609z" />
                </g>
                <g>
                  <path fill="#FFFFFF" d="M181.754,330.907c2.904-5.053,4.882-11.198,5.572-17.924l0.232-3.259
					c0.026-0.678,0.042-1.361,0.042-2.048v-1.077h-52.533v1.077c0,14.271,5.771,26.671,14.196,32.838
					c-0.018,0.072-0.03,0.146-0.031,0.222l-0.05,3.667c-0.007,0.563,0.482,1.024,1.086,1.024h21.977
					c0.604,0,1.111-0.461,1.127-1.024l0.112-3.668c0.002-0.089-0.012-0.174-0.032-0.257c2.516-1.851,6.754-6.954,6.876-6.884
					L181.754,330.907z M185.434,308.753c-0.036,1.687-0.16,3.343-0.356,4.962H137.59c-0.197-1.619-0.321-3.274-0.356-4.962H185.434z
					" />
                </g>
                <g>
                  <rect x="150.341" y="304.743" fill="#FFFFFF" width="22.568" height="3.712" />
                </g>
                <g>
                  <g>
                    <path fill="#333333"
                      d="M163.418,304.415h-0.983v-15.851c0-0.277-0.008-0.553-0.017-0.845c-0.027-0.88-0.054-1.789,0.162-2.678
						c0.471-1.938,1.569-3.843,2.407-5.099c1.137-1.705,1.15-5.662,1.15-5.701h0.983c0,0.175-0.015,4.297-1.316,6.247
						c-1.139,1.708-1.924,3.363-2.27,4.786c-0.185,0.759-0.16,1.564-0.134,2.416c0.009,0.287,0.018,0.583,0.018,0.875V304.415z" />
                  </g>
                  <g>
                    <path fill="#333333" d="M166.096,239.185h-0.983c0-15.231,2.152-29.843,4.549-44.715c0.438-2.718,0.974-5.507,1.493-8.204
						c1.68-8.74,3.418-17.778,2.318-26.595c-0.694-5.563-2.172-11.261-7.874-11.338c-0.706-0.009-1.376,0.059-2.008,0.207
						c5.799,6.079,3.528,25.044,3.426,25.865c-0.695,5.613-1.471,11.309-2.222,16.818c-0.448,3.289-0.911,6.689-1.352,10.035
						c-0.023,0.171-0.064,0.489-0.315,0.718c-0.236,0.216-0.531,0.24-0.69,0.252c-0.831,0.066-1.673,0.054-2.502-0.036
						c-0.157-0.017-0.485-0.053-0.722-0.3c-0.209-0.219-0.248-0.492-0.271-0.656c-0.977-6.936-1.68-14.015-2.36-20.862l-0.107-1.076
						c-0.108-1.085-0.211-2.17-0.314-3.256c-0.199-2.097-0.405-4.265-0.643-6.39c-0.75-6.686-0.182-15.341,3.659-19.579
						c0.716-0.789,1.522-1.409,2.415-1.856c-1.098-0.602-2.37-0.727-3.857-0.386c-10.93,2.511-9.225,19.908-7.236,30.055
						c2.292,11.692,3.892,21.379,5.034,30.484c1.397,11.136,2.076,21.216,2.076,30.817h-0.983c0-22.108-3.79-44.273-7.091-61.112
						c-1.338-6.826-1.78-12.732-1.313-17.553c0.758-7.814,3.884-12.406,9.292-13.648c2.005-0.461,3.747-0.161,5.189,0.89
						c0.896-0.288,1.866-0.426,2.905-0.412c7.326,0.1,8.384,8.578,8.835,12.199c1.119,8.971-0.633,18.087-2.328,26.902
						c-0.517,2.69-1.052,5.472-1.488,8.175C168.242,209.458,166.096,224.026,166.096,239.185z M159.934,201.198
						c0.026,0.005,0.062,0.01,0.109,0.015c0.768,0.083,1.549,0.094,2.319,0.034c0.038-0.003,0.068-0.006,0.091-0.009
						c0.008-0.038,0.014-0.087,0.017-0.11c0.441-3.348,0.905-6.749,1.353-10.039c0.75-5.506,1.525-11.199,2.22-16.806
						c0.132-1.064,0.772-6.68,0.423-12.713c-0.365-6.309-1.713-10.686-3.9-12.659c-0.013-0.012-0.026-0.023-0.039-0.035
						c-0.986,0.4-1.861,1.019-2.619,1.855c-1.738,1.917-2.879,4.932-3.393,8.961c-0.52,4.075-0.234,7.92-0.018,9.849
						c0.239,2.134,0.446,4.306,0.645,6.407c0.103,1.084,0.206,2.168,0.314,3.251l0.107,1.077c0.679,6.837,1.381,13.906,2.355,20.822
						C159.921,201.12,159.927,201.164,159.934,201.198z M159.945,201.237L159.945,201.237L159.945,201.237z M162.498,201.227
						L162.498,201.227L162.498,201.227z" />
                  </g>
                  <g>
                    <path fill="#333333" d="M160.28,304.415h-0.983v-16.788c0-1.282-0.029-2.271-0.4-3.323c-0.495-1.402-1.282-2.672-1.987-3.729
						c-1.301-1.95-1.316-6.072-1.316-6.247v-34.418c0-0.671,0.546-1.217,1.217-1.217h0.596c0.671,0,1.217,0.546,1.217,1.217v34.375
						c0,1.399,0.799,2.537,1.781,2.537h1.905c0.982,0,1.781-1.138,1.781-2.537v-34.375c0-0.671,0.546-1.217,1.217-1.217h0.596
						c0.671,0,1.217,0.546,1.217,1.217v34.418h-0.983v-34.418c0-0.129-0.105-0.234-0.234-0.234h-0.596
						c-0.129,0-0.234,0.105-0.234,0.234v34.375c0,1.974-1.214,3.52-2.764,3.52h-1.905c-1.55,0-2.764-1.546-2.764-3.52v-34.375
						c0-0.129-0.105-0.234-0.234-0.234h-0.596c-0.129,0-0.234,0.105-0.234,0.234v34.418c0,0.04,0.015,3.999,1.151,5.701
						c0.739,1.108,1.565,2.443,2.096,3.947c0.456,1.292,0.456,2.545,0.456,3.65V304.415z" />
                  </g>
                </g>
              </g>
            </g>
          </g>
        </svg>
