            <svg version="1.1" id="Ebene_1" xmlns="http://www.w3.org/2000/svg" xmlns:xlink="http://www.w3.org/1999/xlink" x="0px" y="0px"
            viewBox="0 0 341.18 84.852" enable-background="new 0 0 341.18 84.852" xml:space="preserve">
       <g>
           <g>
               <path fill-rule="evenodd" clip-rule="evenodd" fill="#FFFFFF" d="M80.907,31.207c2.091,0,4.182,0,6.273,0
                   c0.216,10.939,0.118,25.504,0.118,37.071c0,1.687-0.158,3.403,0.237,4.616c0.922,2.837,4.599,4.992,8.167,3.906
                   c1.815-0.552,3.523-2.356,4.143-4.024c0.757-2.04,0.237-6.723,0.237-9.469c0-9.244,0-23.582,0-31.981
                   c1.899-0.196,4.611-0.196,6.51,0c0,9.035,0,21.622,0,30.916c0,3.14,0.21,6.304,0,9.232c-0.188,2.632-1.132,4.892-2.485,6.747
                   c-1.254,1.72-3.078,3.395-4.853,4.262c-3.382,1.65-8.426,1.345-11.363-0.118c-3.157-1.573-6.658-5.54-7.102-9.943
                   c-0.296-2.938,0-6.336,0-9.588c0-9.134,0-22.352,0-31.271C80.779,31.394,80.77,31.226,80.907,31.207z"/>
           </g>
           <g>
               <path fill-rule="evenodd" clip-rule="evenodd" fill="#FFFFFF" d="M238.64,31.566c7.93,0,15.861,0,23.791,0
                   c0,2.052,0,4.103,0,6.155c-2.88,0-5.76,0-8.64,0c-0.277,14.204-0.04,29.159-0.119,43.56c-2.131,0-4.261,0-6.392,0
                   c0-13.928,0-29.119,0-43.442c-2.685-0.274-5.877-0.041-8.759-0.118c0-1.934,0-3.867,0-5.8
                   C238.512,31.753,238.502,31.585,238.64,31.566z"/>
           </g>
           <g>
               <path fill-rule="evenodd" clip-rule="evenodd" fill="#FFFFFF" d="M212.382,31.655c0,10.061,0,20.122,0,30.184
                   c-2.723-0.078-5.758,0.156-8.285-0.119c0.424-4.757,0.237-9.855,0.237-14.914c0-5.07,0-10.188,0-15.151c-2.249,0-4.498,0-6.747,0
                   c-0.138,0.02-0.128,0.187-0.118,0.355c0,5.001,0,10.205,0,15.27c0,5.052,0.36,10.047-0.237,14.559
                   c-3.946,0.078-8.206-0.157-11.955,0.119c0.076,2.093-0.155,4.494,0.118,6.392c3.117,0.079,6.55-0.158,9.469,0.118
                   c-2.362,4.298-5.541,7.778-11.652,8.327v6.706c0.451,0,0.903,0,1.354,0c1.099-0.518,2.253-0.523,3.314-0.828
                   c1.027-0.297,2.048-0.73,2.959-1.184c5.64-2.806,9.026-7.468,11.718-13.138c3.237,0.077,6.785-0.157,9.824,0.118
                   c0,4.419,0,8.838,0,13.257c1.597,0.005,4.677,0.005,6.274,0c0-16.689,0-33.379,0-50.068
                   C216.564,31.655,214.473,31.655,212.382,31.655z"/>
           </g>
           <g>
               <path fill="#FFFFFF" d="M57.394,31.559l-18.67-0.031v33.675c0,8.754,7.122,15.877,15.877,15.877h0.978v-6.138H54.6
                   c-5.172,0-9.415-4.053-9.72-9.149h10.828v-6.138H44.862l0-21.812h12.532V31.559z"/>
           </g>
           <g>
               <path fill="#FFFFFF" d="M335.048,30.225v4.571c-3.191-2.922-7.38-4.571-11.729-4.571h-2.821v30.857h5.643V36.21
                   c5.207,1.282,8.907,5.948,8.907,11.386v4.419h5.643v-21.79H335.048z"/>
               <path fill="#FFFFFF" d="M326.4,61.34h-6.161V29.966h3.08c4.217,0,8.267,1.506,11.47,4.254v-4.254h6.161v22.308h-6.161v-4.678
                   c0-5.182-3.433-9.679-8.389-11.051V61.34z M320.757,60.823h5.125V35.879l0.321,0.079c5.36,1.32,9.104,6.105,9.104,11.637v4.16
                   h5.125V30.484h-5.125v4.9l-0.434-0.397c-3.171-2.904-7.274-4.503-11.554-4.503h-2.562V60.823z"/>
           </g>
           <g>
               <path fill="#FFFFFF" d="M280.247,31.559l18.671-0.031v33.675c0,8.754-7.122,15.877-15.877,15.877h-0.978v-6.138h0.978
                   c5.172,0,9.415-4.053,9.72-9.149h-10.828v-6.138h10.846l0-21.812h-12.532V31.559z"/>
           </g>
           <g>
               <g>
                   <path fill="#FFFFFF" d="M152.372,84.852c-15.195,0-27.557-12.362-27.557-27.556s12.362-27.557,27.557-27.557
                       c7.537,0,14.577,2.991,19.821,8.422l1.001,1.036l-4.568,3.887l-0.883-0.898c-4.095-4.165-9.554-6.459-15.371-6.459
                       c-11.892,0-21.568,9.675-21.568,21.568c0,10.929,8.181,20.064,18.874,21.397v-4.185h5.859v10.191l-1.26,0.086
                       C153.629,84.83,152.989,84.852,152.372,84.852z"/>
               </g>
               <g>
                   <path fill="#FFFFFF" d="M154.184,80.143V78.37v-2.51h-3.153v4.313c-12.016-0.697-21.58-10.69-21.58-22.878
                       c0-12.638,10.282-22.92,22.92-22.92c6.39,0,12.175,2.631,16.336,6.864l2.512-2.138c-4.765-4.935-11.446-8.009-18.848-8.009
                       c-14.472,0-26.204,11.732-26.204,26.204s11.732,26.204,26.204,26.204c0.609,0,1.214-0.022,1.812-0.063V80.143z"/>
               </g>
           </g>
           <g>
               <path fill="#FFFFFF" d="M0.173,32.125v29.857c0,8.754,7.122,15.877,15.877,15.877h0.978V71.72h-0.978
                   c-5.172,0-9.415-4.053-9.72-9.149l-0.018-6.138l0-21.812v-2.496H0.173z"/>
               <path fill="#FFFFFF" d="M17.2,78.031h-1.151C7.2,78.031,0,70.831,0,61.982v-30.03h6.484l0,24.48l0.018,6.138
                   c0.302,5.03,4.496,8.977,9.548,8.977H17.2V78.031z M0.345,32.297v29.685c0,8.659,7.045,15.704,15.704,15.704h0.805v-5.793h-0.805
                   c-5.235,0-9.58-4.09-9.893-9.312l-0.018-6.148l0-24.136H0.345z"/>
           </g>
           <g>
               <path fill="#FFFFFF" d="M341.007,43.646v17.927c0,8.754-7.122,15.877-15.877,15.877h-0.978v-6.138h0.978
                   c5.172,0,9.415-4.053,9.72-9.149l0.018-6.138l0-21.812v9.435H341.007z"/>
               <path fill="#FFFFFF" d="M325.13,77.622h-1.151v-6.484h1.151c5.052,0,9.246-3.948,9.548-8.987l0.017-6.129l0-21.812h0.345v9.262
                   h6.138v18.099C341.18,70.423,333.98,77.622,325.13,77.622z M324.325,77.277h0.805c8.659,0,15.704-7.045,15.704-15.704V43.819
                   h-5.793l0,12.205l-0.018,6.139c-0.313,5.231-4.659,9.322-9.893,9.322h-0.805V77.277z"/>
           </g>
           <g>
               <path fill="#FFFFFF" d="M152.312,70.099c-6.905,0-12.522-5.617-12.522-12.522s5.617-12.522,12.522-12.522
                   s12.522,5.617,12.522,12.522S159.216,70.099,152.312,70.099z M152.312,50.752c-3.763,0-6.825,3.062-6.825,6.825
                   s3.062,6.825,6.825,6.825s6.825-3.062,6.825-6.825S156.075,50.752,152.312,50.752z"/>
           </g>
           <g>
               <g>
                   <path fill="#FFFFFF" d="M155.649,0.042c1.044,0,2.025,0.198,2.943,0.593c0.917,0.395,1.718,0.935,2.403,1.62
                       c0.684,0.685,1.224,1.486,1.62,2.403c0.395,0.918,0.593,1.899,0.593,2.943c0,1.045-0.198,2.026-0.593,2.943
                       c-0.395,0.918-0.935,1.719-1.62,2.403c-0.685,0.685-1.486,1.225-2.403,1.62c-0.918,0.395-1.899,0.593-2.943,0.593h-2.223
                       c-0.085,0-0.155-0.032-0.212-0.095c-0.057-0.063-0.085-0.13-0.085-0.201V0.339c0-0.197,0.099-0.296,0.296-0.296H155.649z
                        M155.649,12.64c0.691,0,1.344-0.134,1.958-0.402c0.614-0.268,1.15-0.628,1.609-1.08c0.458-0.452,0.818-0.985,1.08-1.599
                       c0.261-0.614,0.392-1.267,0.392-1.958c0-0.691-0.131-1.344-0.392-1.958c-0.261-0.614-0.621-1.15-1.08-1.609
                       c-0.459-0.459-0.995-0.818-1.609-1.08c-0.614-0.261-1.267-0.392-1.958-0.392V12.64z"/>
               </g>
               <g>
                   <path fill="#FFFFFF" d="M167.252,15.16h-1.948c-0.085,0-0.155-0.032-0.212-0.095c-0.057-0.063-0.085-0.13-0.085-0.201V4.446
                       c0-0.607,0.116-1.178,0.349-1.715c0.233-0.536,0.551-1.002,0.953-1.397c0.402-0.395,0.871-0.709,1.408-0.942
                       c0.536-0.233,1.108-0.349,1.715-0.349c0.607,0,1.178,0.116,1.715,0.349c0.536,0.233,1.002,0.547,1.397,0.942
                       c0.395,0.395,0.709,0.861,0.942,1.397c0.233,0.537,0.349,1.108,0.349,1.715v10.417c0,0.071-0.028,0.138-0.085,0.201
                       c-0.057,0.064-0.127,0.095-0.212,0.095h-1.948c-0.071,0-0.134-0.032-0.191-0.095c-0.057-0.063-0.085-0.13-0.085-0.201v-4.743
                       h-3.79v4.743c0,0.071-0.028,0.138-0.085,0.201C167.386,15.128,167.322,15.16,167.252,15.16z M171.317,7.601V4.446
                       c0-0.522-0.184-0.967-0.551-1.334c-0.367-0.367-0.812-0.551-1.334-0.551c-0.537,0-0.988,0.184-1.355,0.551
                       c-0.367,0.367-0.551,0.812-0.551,1.334v3.155H171.317z"/>
               </g>
               <g>
                   <path fill="#FFFFFF" d="M177.478,14.969c-0.184-0.056-0.413-0.169-0.688-0.339c-0.275-0.169-0.505-0.31-0.688-0.423
                       c-0.169-0.099-0.254-0.247-0.254-0.445v-2.456c0-0.169,0.071-0.197,0.212-0.085c0.113,0.113,0.243,0.247,0.392,0.402
                       c0.148,0.155,0.257,0.254,0.328,0.297c0.197,0.127,0.423,0.261,0.678,0.402c0.24,0.141,0.529,0.268,0.868,0.381
                       c0.155,0.042,0.314,0.078,0.476,0.106c0.162,0.028,0.321,0.042,0.476,0.042c0.621,0,1.136-0.226,1.546-0.678
                       c0.409-0.452,0.614-0.974,0.614-1.567c0-0.508-0.169-0.91-0.508-1.207c-0.381-0.339-0.967-0.706-1.757-1.101
                       c-0.24-0.127-0.466-0.247-0.677-0.36c-0.212-0.113-0.402-0.226-0.572-0.339c-0.169-0.113-0.335-0.236-0.498-0.371
                       c-0.162-0.134-0.321-0.279-0.476-0.434c-0.339-0.31-0.6-0.684-0.783-1.122c-0.198-0.466-0.296-0.981-0.296-1.546
                       c0.014-0.564,0.155-1.108,0.423-1.63c0.254-0.494,0.593-0.932,1.016-1.313c0.437-0.367,0.917-0.656,1.44-0.868
                       C179.299,0.106,179.871,0,180.463,0c0.452,0.014,0.868,0.078,1.249,0.191c0.183,0.071,0.371,0.155,0.561,0.254
                       c0.191,0.099,0.356,0.184,0.497,0.254c0.071,0.028,0.127,0.088,0.169,0.18c0.042,0.092,0.063,0.173,0.063,0.244v1.969
                       c0,0.169-0.078,0.212-0.233,0.127c-0.198-0.141-0.406-0.272-0.625-0.392c-0.219-0.12-0.519-0.236-0.9-0.349
                       c-0.254-0.085-0.515-0.127-0.783-0.127c-0.607,0.028-1.115,0.226-1.524,0.593c-0.41,0.381-0.614,0.812-0.614,1.292
                       c0.014,0.466,0.183,0.84,0.508,1.122c0.169,0.155,0.395,0.311,0.677,0.466c0.282,0.155,0.614,0.325,0.995,0.508
                       c0.268,0.127,0.511,0.247,0.73,0.36c0.219,0.113,0.413,0.219,0.582,0.318c0.169,0.113,0.339,0.233,0.508,0.36
                       c0.169,0.127,0.331,0.268,0.487,0.423c0.339,0.325,0.607,0.72,0.805,1.186c0.198,0.466,0.31,1.038,0.339,1.715
                       c0,0.607-0.127,1.186-0.381,1.736c-0.254,0.537-0.6,1.016-1.037,1.44c-0.452,0.423-0.967,0.755-1.546,0.995
                       c-0.593,0.24-1.193,0.36-1.8,0.36C178.529,15.223,177.958,15.139,177.478,14.969z"/>
               </g>
           </g>
       </g>
       </svg>
